<svg viewBox="0 0 1000 1420" role="img" aria-label="Biotin in vier Zonen. Zone A zeigt, warum eine Carboxylierung ATP kostet: Hydrogencarbonat wird mit ATP zum gemischten Anhydrid Carboxyphosphat, das in Kohlendioxid und Phosphat zerfaellt. Zone B zeigt die Carboxylierung des Biotins am Ureidostickstoff N1-Strich, dem Stickstoff am Ringfusionskohlenstoff C6a-Strich, der von der Valeriansaeurekette abgewandt ist. Der Bicyclus traegt die Konfiguration des natuerlichen d-Biotins: alle drei Ringprotonen stehen cis auf derselben Seite. Drei Elektronenpaarpfeile: Das Phosphat aus Zone A nimmt dem Stickstoff sein Proton ab, das Elektronenpaar der Stickstoff-Wasserstoff-Bindung greift den Kohlenstoff des Kohlendioxids an, und eine der beiden Doppelbindungen weicht auf den Sauerstoff aus. Es entsteht Carboxybiotin als Carbamat-Anion. Zone C zeigt die Uebertragung am zweiten aktiven Zentrum: Das als Enolat deprotonierte Acetyl-CoA greift den Carboxylkohlenstoff an, die Stickstoff-Kohlenstoff-Bindung bricht, und ihr Elektronenpaar bleibt nicht am Stickstoff stehen, sondern geht weiter in das Ureido-Carbonyl. Das frei werdende Biotin-Anion ist deshalb ein mesomeriestabilisiertes Amid-Anion und dabei selbst die Base. Es entsteht Malonyl-CoA. Zone D erklaert den sechzehn Angstroem langen Schwenkarm aus Biotin und Lysin, nennt die vier humanen Carboxylasen und die klinischen Sonderfaelle."><defs><marker id="pfk" viewBox="0 0 10 10" refX="9" refY="5" markerWidth="6.5" markerHeight="6.5" orient="auto"><path d="M 0 0 L 10 5 L 0 10 z" fill="var(--warn)"/></marker><marker id="fhl" viewBox="0 0 10 10" refX="9" refY="5" markerWidth="7.5" markerHeight="7.5" orient="auto"><path d="M 0 0 L 10 5 L 2.2 4.2 z" fill="var(--drug)"/></marker><marker id="fhr" viewBox="0 0 10 10" refX="9" refY="5" markerWidth="7.5" markerHeight="7.5" orient="auto"><path d="M 0 10 L 10 5 L 2.2 5.8 z" fill="var(--drug)"/></marker><marker id="rxn" viewBox="0 0 10 10" refX="9" refY="5" markerWidth="7" markerHeight="7" orient="auto"><path d="M 0 0 L 10 5 L 0 10 z" fill="currentColor"/></marker></defs><g font-family="Corbel, Segoe UI, system-ui, sans-serif" fill="currentColor"><g transform="translate(-581.8,-335.2)"><path d="M 697.8,489.5 L 697.8,497.4" fill="none" stroke="#E53F3F" stroke-width="1.7" /><path d="M 697.8,497.4 L 697.8,505.2" fill="none" stroke="currentColor" stroke-width="1.7" /><path d="M 697.8,503.4 L 690.7,507.5" fill="none" stroke="currentColor" stroke-width="1.7" /><path d="M 690.7,507.5 L 683.7,511.6" fill="none" stroke="#E53F3F" stroke-width="1.7" /><path d="M 699.4,506.1 L 692.3,510.2" fill="none" stroke="currentColor" stroke-width="1.7" /><path d="M 692.3,510.2 L 685.2,514.3" fill="none" stroke="#E53F3F" stroke-width="1.7" /><path d="M 697.8,505.2 L 704.5,509.0" fill="none" stroke="currentColor" stroke-width="1.7" /><path d="M 704.5,509.0 L 711.2,512.9" fill="none" stroke="#E53F3F" stroke-width="1.7" /><path d="M 697.8,504.8 L 697.8,505.2 L 698.2,505.4" fill="none" stroke="currentColor" stroke-width="1.7" /><path d="M 693.7 484.2Q 693.7 482.1, 694.8 480.9Q 695.9 479.7, 697.8 479.7Q 699.8 479.7, 700.9 480.9Q 701.9 482.1, 701.9 484.2Q 701.9 486.4, 700.9 487.6Q 699.8 488.8, 697.8 488.8Q 695.9 488.8, 694.8 487.6Q 693.7 486.4, 693.7 484.2M 697.8 487.8Q 699.2 487.8, 699.9 486.9Q 700.7 486.0, 700.7 484.2Q 700.7 482.5, 699.9 481.6Q 699.2 480.7, 697.8 480.7Q 696.5 480.7, 695.7 481.6Q 695.0 482.4, 695.0 484.2Q 695.0 486.0, 695.7 486.9Q 696.5 487.8, 697.8 487.8" fill="#E53F3F"/><path d="M 703.3 479.8L 704.5 479.8L 704.5 483.6L 709.1 483.6L 709.1 479.8L 710.3 479.8L 710.3 488.7L 709.1 488.7L 709.1 484.6L 704.5 484.6L 704.5 488.7L 703.3 488.7L 703.3 479.8" fill="#E53F3F"/><path d="M 675.6 515.7Q 675.6 513.6, 676.6 512.4Q 677.7 511.2, 679.7 511.2Q 681.6 511.2, 682.7 512.4Q 683.7 513.6, 683.7 515.7Q 683.7 517.9, 682.7 519.1Q 681.6 520.3, 679.7 520.3Q 677.7 520.3, 676.6 519.1Q 675.6 517.9, 675.6 515.7M 679.7 519.3Q 681.0 519.3, 681.7 518.4Q 682.5 517.5, 682.5 515.7Q 682.5 514.0, 681.7 513.1Q 681.0 512.2, 679.7 512.2Q 678.3 512.2, 677.5 513.1Q 676.8 513.9, 676.8 515.7Q 676.8 517.5, 677.5 518.4Q 678.3 519.3, 679.7 519.3" fill="#E53F3F"/><path d="M 711.9 515.7Q 711.9 513.6, 713.0 512.4Q 714.0 511.2, 716.0 511.2Q 718.0 511.2, 719.1 512.4Q 720.1 513.6, 720.1 515.7Q 720.1 517.9, 719.0 519.1Q 718.0 520.3, 716.0 520.3Q 714.1 520.3, 713.0 519.1Q 711.9 517.9, 711.9 515.7M 716.0 519.3Q 717.4 519.3, 718.1 518.4Q 718.9 517.5, 718.9 515.7Q 718.9 514.0, 718.1 513.1Q 717.4 512.2, 716.0 512.2Q 714.7 512.2, 713.9 513.1Q 713.2 513.9, 713.2 515.7Q 713.2 517.5, 713.9 518.4Q 714.7 519.3, 716.0 519.3" fill="#E53F3F"/><path d="M 721.4 512.6L 724.4 512.6L 724.4 513.3L 721.4 513.3L 721.4 512.6" fill="#E53F3F"/></g><g transform="translate(-346.4,-330.1)"><path d="M 667.6,493.9 L 674.8,497.2" fill="none" stroke="#E53F3F" stroke-width="1.7" /><path d="M 674.8,497.2 L 681.9,500.6" fill="none" stroke="currentColor" stroke-width="1.7" /><path d="M 680.2,499.8 L 681.0,508.1" fill="none" stroke="currentColor" stroke-width="1.7" /><path d="M 681.0,508.1 L 681.7,516.4" fill="none" stroke="#E53F3F" stroke-width="1.7" /><path d="M 683.4,499.5 L 684.1,507.8" fill="none" stroke="currentColor" stroke-width="1.7" /><path d="M 684.1,507.8 L 684.8,516.1" fill="none" stroke="#E53F3F" stroke-width="1.7" /><path d="M 681.9,500.6 L 688.1,496.2" fill="none" stroke="currentColor" stroke-width="1.7" /><path d="M 688.1,496.2 L 694.3,491.9" fill="none" stroke="#E53F3F" stroke-width="1.7" /><path d="M 703.9,490.8 L 709.2,493.3" fill="none" stroke="#E53F3F" stroke-width="1.7" /><path d="M 709.2,493.3 L 714.6,495.7" fill="none" stroke="#F28C26" stroke-width="1.7" /><path d="M 721.0,500.5 L 726.3,503.0" fill="none" stroke="#F28C26" stroke-width="1.7" /><path d="M 726.3,503.0 L 731.7,505.5" fill="none" stroke="#E53F3F" stroke-width="1.7" /><path d="M 722.3,497.6 L 727.7,500.1" fill="none" stroke="#F28C26" stroke-width="1.7" /><path d="M 727.7,500.1 L 733.0,502.6" fill="none" stroke="#E53F3F" stroke-width="1.7" /><path d="M 720.5,492.2 L 722.5,488.0" fill="none" stroke="#F28C26" stroke-width="1.7" /><path d="M 722.5,488.0 L 724.5,483.7" fill="none" stroke="#E53F3F" stroke-width="1.7" /><path d="M 715.7,502.6 L 713.7,506.9" fill="none" stroke="#F28C26" stroke-width="1.7" /><path d="M 713.7,506.9 L 711.7,511.2" fill="none" stroke="#E53F3F" stroke-width="1.7" /><path d="M 681.5,500.4 L 681.9,500.6 L 682.2,500.4" fill="none" stroke="currentColor" stroke-width="1.7" /><path d="M 658.8 491.7Q 658.8 489.6, 659.8 488.4Q 660.9 487.2, 662.9 487.2Q 664.8 487.2, 665.9 488.4Q 666.9 489.6, 666.9 491.7Q 666.9 493.9, 665.9 495.1Q 664.8 496.3, 662.9 496.3Q 660.9 496.3, 659.8 495.1Q 658.8 493.9, 658.8 491.7M 662.9 495.3Q 664.2 495.3, 664.9 494.4Q 665.7 493.5, 665.7 491.7Q 665.7 490.0, 664.9 489.1Q 664.2 488.2, 662.9 488.2Q 661.5 488.2, 660.7 489.1Q 660.0 490.0, 660.0 491.7Q 660.0 493.5, 660.7 494.4Q 661.5 495.3, 662.9 495.3" fill="#E53F3F"/><path d="M 668.2 488.6L 671.3 488.6L 671.3 489.3L 668.2 489.3L 668.2 488.6" fill="#E53F3F"/><path d="M 679.6 521.5Q 679.6 519.4, 680.7 518.2Q 681.7 517.0, 683.7 517.0Q 685.7 517.0, 686.8 518.2Q 687.8 519.4, 687.8 521.5Q 687.8 523.7, 686.7 524.9Q 685.7 526.1, 683.7 526.1Q 681.8 526.1, 680.7 524.9Q 679.6 523.7, 679.6 521.5M 683.7 525.1Q 685.1 525.1, 685.8 524.2Q 686.6 523.3, 686.6 521.5Q 686.6 519.8, 685.8 518.9Q 685.1 518.0, 683.7 518.0Q 682.4 518.0, 681.6 518.9Q 680.9 519.8, 680.9 521.5Q 680.9 523.3, 681.6 524.2Q 682.4 525.1, 683.7 525.1" fill="#E53F3F"/><path d="M 695.0 488.5Q 695.0 486.4, 696.0 485.2Q 697.1 484.0, 699.1 484.0Q 701.1 484.0, 702.1 485.2Q 703.2 486.4, 703.2 488.5Q 703.2 490.7, 702.1 492.0Q 701.0 493.2, 699.1 493.2Q 697.1 493.2, 696.0 492.0Q 695.0 490.7, 695.0 488.5M 699.1 492.2Q 700.4 492.2, 701.2 491.3Q 701.9 490.3, 701.9 488.5Q 701.9 486.8, 701.2 485.9Q 700.4 485.0, 699.1 485.0Q 697.7 485.0, 697.0 485.9Q 696.3 486.8, 696.3 488.5Q 696.3 490.4, 697.0 491.3Q 697.7 492.2, 699.1 492.2" fill="#E53F3F"/><path d="M 717.9 492.9Q 719.4 492.9, 720.2 493.6Q 721.0 494.3, 721.0 495.6Q 721.0 496.8, 720.2 497.5Q 719.4 498.2, 717.9 498.2L 716.5 498.2L 716.5 501.9L 715.3 501.9L 715.3 492.9L 717.9 492.9M 717.9 497.2Q 718.8 497.2, 719.2 496.8Q 719.7 496.4, 719.7 495.6Q 719.7 494.8, 719.2 494.4Q 718.8 493.9, 717.9 493.9L 716.5 493.9L 716.5 497.2L 717.9 497.2" fill="#F28C26"/><path d="M 733.1 506.3Q 733.1 504.2, 734.1 503.0Q 735.2 501.8, 737.1 501.8Q 739.1 501.8, 740.2 503.0Q 741.2 504.2, 741.2 506.3Q 741.2 508.5, 740.2 509.7Q 739.1 510.9, 737.1 510.9Q 735.2 510.9, 734.1 509.7Q 733.1 508.5, 733.1 506.3M 737.1 509.9Q 738.5 509.9, 739.2 509.0Q 740.0 508.1, 740.0 506.3Q 740.0 504.5, 739.2 503.7Q 738.5 502.8, 737.1 502.8Q 735.8 502.8, 735.0 503.7Q 734.3 504.5, 734.3 506.3Q 734.3 508.1, 735.0 509.0Q 735.8 509.9, 737.1 509.9" fill="#E53F3F"/><path d="M 722.9 478.4Q 722.9 476.3, 724.0 475.1Q 725.0 473.9, 727.0 473.9Q 729.0 473.9, 730.0 475.1Q 731.1 476.3, 731.1 478.4Q 731.1 480.6, 730.0 481.8Q 728.9 483.0, 727.0 483.0Q 725.0 483.0, 724.0 481.8Q 722.9 480.6, 722.9 478.4M 727.0 482.0Q 728.4 482.0, 729.1 481.1Q 729.8 480.2, 729.8 478.4Q 729.8 476.6, 729.1 475.8Q 728.4 474.9, 727.0 474.9Q 725.6 474.9, 724.9 475.7Q 724.2 476.6, 724.2 478.4Q 724.2 480.2, 724.9 481.1Q 725.6 482.0, 727.0 482.0" fill="#E53F3F"/><path d="M 732.4 475.3L 735.4 475.3L 735.4 476.0L 732.4 476.0L 732.4 475.3" fill="#E53F3F"/><path d="M 705.1 516.5Q 705.1 514.3, 706.2 513.1Q 707.3 511.9, 709.2 511.9Q 711.2 511.9, 712.3 513.1Q 713.3 514.3, 713.3 516.5Q 713.3 518.6, 712.3 519.9Q 711.2 521.1, 709.2 521.1Q 707.3 521.1, 706.2 519.9Q 705.1 518.6, 705.1 516.5M 709.2 520.1Q 710.6 520.1, 711.3 519.2Q 712.1 518.2, 712.1 516.5Q 712.1 514.7, 711.3 513.8Q 710.6 512.9, 709.2 512.9Q 707.9 512.9, 707.1 513.8Q 706.4 514.7, 706.4 516.5Q 706.4 518.3, 707.1 519.2Q 707.9 520.1, 709.2 520.1" fill="#E53F3F"/><path d="M 714.6 513.4L 717.7 513.4L 717.7 514.0L 714.6 514.0L 714.6 513.4" fill="#E53F3F"/></g><g transform="translate(-96.0,-329.9)"><path d="M 701.6,484.3 L 701.6,489.5" fill="none" stroke="#E53F3F" stroke-width="1.7" /><path d="M 701.6,489.5 L 701.6,494.7" fill="none" stroke="currentColor" stroke-width="1.7" /><path d="M 698.4,484.3 L 698.4,489.5" fill="none" stroke="#E53F3F" stroke-width="1.7" /><path d="M 698.4,489.5 L 698.4,494.7" fill="none" stroke="currentColor" stroke-width="1.7" /><path d="M 701.6,505.2 L 701.6,510.5" fill="none" stroke="currentColor" stroke-width="1.7" /><path d="M 701.6,510.5 L 701.6,515.7" fill="none" stroke="#E53F3F" stroke-width="1.7" /><path d="M 698.4,505.2 L 698.4,510.5" fill="none" stroke="currentColor" stroke-width="1.7" /><path d="M 698.4,510.5 L 698.4,515.7" fill="none" stroke="#E53F3F" stroke-width="1.7" /><path d="M 695.9 479.0Q 695.9 476.8, 697.0 475.6Q 698.0 474.4, 700.0 474.4Q 702.0 474.4, 703.0 475.6Q 704.1 476.8, 704.1 479.0Q 704.1 481.1, 703.0 482.4Q 702.0 483.6, 700.0 483.6Q 698.0 483.6, 697.0 482.4Q 695.9 481.1, 695.9 479.0M 700.0 482.6Q 701.4 482.6, 702.1 481.7Q 702.8 480.7, 702.8 479.0Q 702.8 477.2, 702.1 476.3Q 701.4 475.4, 700.0 475.4Q 698.6 475.4, 697.9 476.3Q 697.2 477.2, 697.2 479.0Q 697.2 480.8, 697.9 481.7Q 698.6 482.6, 700.0 482.6" fill="#E53F3F"/><path d="M 696.6 500.0Q 696.6 497.8, 697.6 496.6Q 698.6 495.4, 700.6 495.4Q 702.5 495.4, 703.4 496.7L 702.6 497.4Q 701.9 496.5, 700.6 496.5Q 699.3 496.5, 698.6 497.4Q 697.8 498.3, 697.8 500.0Q 697.8 501.7, 698.6 502.6Q 699.3 503.5, 700.8 503.5Q 701.7 503.5, 702.9 503.0L 703.2 503.9Q 702.8 504.2, 702.1 504.4Q 701.4 504.6, 700.6 504.6Q 698.6 504.6, 697.6 503.4Q 696.6 502.2, 696.6 500.0" fill="currentColor"/><path d="M 695.9 521.0Q 695.9 518.8, 697.0 517.6Q 698.0 516.4, 700.0 516.4Q 702.0 516.4, 703.0 517.6Q 704.1 518.8, 704.1 521.0Q 704.1 523.1, 703.0 524.4Q 702.0 525.6, 700.0 525.6Q 698.0 525.6, 697.0 524.4Q 695.9 523.1, 695.9 521.0M 700.0 524.6Q 701.4 524.6, 702.1 523.7Q 702.8 522.7, 702.8 521.0Q 702.8 519.2, 702.1 518.3Q 701.4 517.4, 700.0 517.4Q 698.6 517.4, 697.9 518.3Q 697.2 519.2, 697.2 521.0Q 697.2 522.8, 697.9 523.7Q 698.6 524.6, 700.0 524.6" fill="#E53F3F"/></g><g transform="translate(-434.8,-17.0)"><path d="M 697.3,460.4 L 699.1,468.6" fill="none" stroke="#E53F3F" stroke-width="1.7" /><path d="M 699.1,468.6 L 700.8,476.8" fill="none" stroke="currentColor" stroke-width="1.7" /><path d="M 694.2,461.1 L 696.0,469.3" fill="none" stroke="#E53F3F" stroke-width="1.7" /><path d="M 696.0,469.3 L 697.7,477.5" fill="none" stroke="currentColor" stroke-width="1.7" /><path d="M 699.0,476.0 L 706.6,479.4" fill="none" stroke="currentColor" stroke-width="1.7" /><path d="M 706.6,479.4 L 714.2,482.8" fill="none" stroke="#338CF2" stroke-width="1.7" /><path d="M 717.8,489.8 L 717.0,497.7" fill="none" stroke="#338CF2" stroke-width="1.7" /><path d="M 717.0,497.7 L 716.1,505.6" fill="none" stroke="currentColor" stroke-width="1.7" /><path d="M 716.1,505.6 L 726.7,523.8" fill="none" stroke="currentColor" stroke-width="1.7" /><path d="M 726.7,523.8 L 721.4,529.7" fill="none" stroke="currentColor" stroke-width="1.7" /><path d="M 721.4,529.7 L 716.2,535.6" fill="none" stroke="#CC9E19" stroke-width="1.7" /><path d="M 709.1,537.9 L 701.2,534.5" fill="none" stroke="#CC9E19" stroke-width="1.7" /><path d="M 701.2,534.5 L 693.3,531.0" fill="none" stroke="currentColor" stroke-width="1.7" /><path d="M 693.3,531.0 L 686.5,535.9 L 685.7,534.5 Z" fill="currentColor" stroke="currentColor" stroke-width="0.4" /><path d="M 678.0,538.0 L 679.6,540.8 L 686.5,535.9 L 685.7,534.5 Z" fill="#727272" stroke="#727272" stroke-width="0.4" /><path d="M 693.3,531.0 L 695.5,510.0" fill="none" stroke="currentColor" stroke-width="1.7" /><path d="M 695.5,510.0 L 691.7,503.4" fill="none" stroke="currentColor" stroke-width="1.7" /><path d="M 691.7,503.4 L 687.9,496.9" fill="none" stroke="#338CF2" stroke-width="1.7" /><path d="M 689.0,487.2 L 694.0,481.6" fill="none" stroke="#338CF2" stroke-width="1.7" /><path d="M 694.0,481.6 L 699.0,476.0" fill="none" stroke="currentColor" stroke-width="1.7" /><path d="M 695.5,510.0 L 716.1,505.6" fill="none" stroke="currentColor" stroke-width="1.7" /><path d="M 722.4,482.2 L 727.4,479.3" fill="none" stroke="#338CF2" stroke-width="1.7" /><path d="M 727.4,479.3 L 732.4,476.4" fill="none" stroke="currentColor" stroke-width="1.7" /><path d="M 719.2,504.6 L 719.3,505.2" fill="none" stroke="currentColor" stroke-width="0.8" /><path d="M 722.3,503.6 L 722.5,504.9" fill="none" stroke="currentColor" stroke-width="0.8" /><path d="M 725.3,502.6 L 725.7,504.5" fill="none" stroke="currentColor" stroke-width="0.8" /><path d="M 728.4,501.7 L 728.9,504.1" fill="none" stroke="currentColor" stroke-width="0.8" /><path d="M 731.5,500.7 L 732.1,503.8" fill="none" stroke="currentColor" stroke-width="0.8" /><path d="M 692.4,511.0 L 692.3,510.3" fill="none" stroke="currentColor" stroke-width="0.8" /><path d="M 689.4,511.9 L 689.1,510.7" fill="none" stroke="currentColor" stroke-width="0.8" /><path d="M 686.3,512.9 L 685.9,511.1" fill="none" stroke="currentColor" stroke-width="0.8" /><path d="M 683.3,513.9 L 682.7,511.4" fill="none" stroke="currentColor" stroke-width="0.8" /><path d="M 680.2,514.9 L 679.5,511.8" fill="none" stroke="currentColor" stroke-width="0.8" /><path d="M 699.4,476.2 L 699.0,476.0 L 698.8,476.3" fill="none" stroke="currentColor" stroke-width="1.7" /><path d="M 726.2,522.9 L 726.7,523.8 L 726.4,524.1" fill="none" stroke="currentColor" stroke-width="1.7" /><path d="M 693.7,531.1 L 693.3,531.0 L 693.4,529.9" fill="none" stroke="currentColor" stroke-width="1.7" /><path d="M 690.5 455.4Q 690.5 453.3, 691.6 452.1Q 692.6 450.9, 694.6 450.9Q 696.6 450.9, 697.7 452.1Q 698.7 453.3, 698.7 455.4Q 698.7 457.6, 697.6 458.8Q 696.6 460.1, 694.6 460.1Q 692.7 460.1, 691.6 458.8Q 690.5 457.6, 690.5 455.4M 694.6 459.1Q 696.0 459.1, 696.7 458.1Q 697.5 457.2, 697.5 455.4Q 697.5 453.7, 696.7 452.8Q 696.0 451.9, 694.6 451.9Q 693.3 451.9, 692.5 452.8Q 691.8 453.7, 691.8 455.4Q 691.8 457.2, 692.5 458.1Q 693.3 459.1, 694.6 459.1" fill="#E53F3F"/><path d="M 716.3 480.1L 719.3 484.9Q 719.6 485.3, 720.0 486.2Q 720.5 487.0, 720.5 487.1L 720.5 480.1L 721.7 480.1L 721.7 489.1L 720.5 489.1L 717.3 483.9Q 717.0 483.3, 716.6 482.6Q 716.2 481.9, 716.1 481.7L 716.1 489.1L 714.9 489.1L 714.9 480.1L 716.3 480.1" fill="#338CF2"/><path d="M 710.1 542.6Q 710.2 542.6, 710.6 542.8Q 711.0 543.0, 711.5 543.1Q 712.0 543.2, 712.4 543.2Q 713.3 543.2, 713.7 542.8Q 714.2 542.4, 714.2 541.6Q 714.2 541.2, 714.0 540.9Q 713.7 540.6, 713.4 540.4Q 713.0 540.2, 712.4 540.0Q 711.6 539.8, 711.1 539.6Q 710.6 539.3, 710.3 538.9Q 709.9 538.4, 709.9 537.6Q 709.9 536.5, 710.7 535.8Q 711.5 535.1, 713.0 535.1Q 714.0 535.1, 715.2 535.6L 714.9 536.5Q 713.8 536.1, 713.0 536.1Q 712.2 536.1, 711.7 536.5Q 711.2 536.8, 711.2 537.4Q 711.2 537.9, 711.4 538.2Q 711.7 538.5, 712.1 538.6Q 712.4 538.8, 713.0 539.0Q 713.8 539.3, 714.3 539.5Q 714.8 539.8, 715.1 540.3Q 715.5 540.8, 715.5 541.6Q 715.5 542.9, 714.6 543.5Q 713.8 544.2, 712.5 544.2Q 711.7 544.2, 711.1 544.0Q 710.5 543.9, 709.8 543.6L 710.1 542.6" fill="#CC9E19"/><path d="M 659.8 537.1L 661.0 537.1L 661.0 545.0L 665.1 545.0L 665.1 546.0L 659.8 546.0L 659.8 537.1" fill="#727272"/><path d="M 671.0 539.5L 672.1 539.5L 668.8 549.1L 667.7 549.1L 668.8 546.0L 668.3 546.0L 666.0 539.5L 667.2 539.5L 669.1 545.0L 671.0 539.5" fill="#727272"/><path d="M 673.2 544.7Q 673.7 544.9, 674.1 545.0Q 674.5 545.1, 675.0 545.1Q 675.6 545.1, 675.9 544.9Q 676.2 544.7, 676.2 544.2Q 676.2 543.9, 676.0 543.7Q 675.9 543.5, 675.6 543.4Q 675.4 543.4, 674.9 543.2Q 674.8 543.1, 674.2 542.9Q 673.6 542.7, 673.3 542.3Q 673.0 541.9, 673.0 541.2Q 673.0 540.5, 673.6 539.9Q 674.2 539.4, 675.4 539.4Q 675.9 539.4, 676.3 539.5Q 676.8 539.6, 677.2 539.8L 676.9 540.8Q 676.5 540.6, 676.1 540.5Q 675.8 540.4, 675.4 540.4Q 674.8 540.4, 674.5 540.6Q 674.2 540.9, 674.2 541.2Q 674.2 541.6, 674.4 541.8Q 674.7 541.9, 675.2 542.1Q 675.3 542.2, 675.5 542.2L 675.8 542.3Q 676.3 542.5, 676.6 542.7Q 676.9 542.8, 677.2 543.2Q 677.4 543.6, 677.4 544.2Q 677.4 545.1, 676.7 545.6Q 676.1 546.1, 675.0 546.1Q 674.4 546.1, 673.9 546.0Q 673.3 545.8, 672.8 545.6L 673.2 544.7" fill="#727272"/><path d="M 672.8 487.3L 674.0 487.3L 674.0 491.1L 678.6 491.1L 678.6 487.3L 679.8 487.3L 679.8 496.2L 678.6 496.2L 678.6 492.1L 674.0 492.1L 674.0 496.2L 672.8 496.2L 672.8 487.3" fill="#338CF2"/><path d="M 683.0 487.3L 685.9 492.0Q 686.2 492.5, 686.6 493.3Q 687.1 494.2, 687.1 494.2L 687.1 487.3L 688.3 487.3L 688.3 496.2L 687.1 496.2L 684.0 491.0Q 683.6 490.4, 683.2 489.7Q 682.8 489.0, 682.7 488.8L 682.7 496.2L 681.6 496.2L 681.6 487.3L 683.0 487.3" fill="#338CF2"/><path d="M 733.1 469.6L 734.3 469.6L 734.3 473.4L 738.8 473.4L 738.8 469.6L 740.1 469.6L 740.1 478.5L 738.8 478.5L 738.8 474.4L 734.3 474.4L 734.3 478.5L 733.1 478.5L 733.1 469.6" fill="currentColor"/><path d="M 733.2 496.7L 734.4 496.7L 734.4 500.5L 739.0 500.5L 739.0 496.7L 740.2 496.7L 740.2 505.6L 739.0 505.6L 739.0 501.5L 734.4 501.5L 734.4 505.6L 733.2 505.6L 733.2 496.7" fill="currentColor"/><path d="M 671.5 509.9L 672.7 509.9L 672.7 513.7L 677.3 513.7L 677.3 509.9L 678.5 509.9L 678.5 518.8L 677.3 518.8L 677.3 514.7L 672.7 514.7L 672.7 518.8L 671.5 518.8L 671.5 509.9" fill="currentColor"/></g><g transform="translate(-335.0,-64.9)"><path d="M 701.6,484.3 L 701.6,489.5" fill="none" stroke="#E53F3F" stroke-width="1.7" /><path d="M 701.6,489.5 L 701.6,494.7" fill="none" stroke="currentColor" stroke-width="1.7" /><path d="M 698.4,484.3 L 698.4,489.5" fill="none" stroke="#E53F3F" stroke-width="1.7" /><path d="M 698.4,489.5 L 698.4,494.7" fill="none" stroke="currentColor" stroke-width="1.7" /><path d="M 701.6,505.2 L 701.6,510.5" fill="none" stroke="currentColor" stroke-width="1.7" /><path d="M 701.6,510.5 L 701.6,515.7" fill="none" stroke="#E53F3F" stroke-width="1.7" /><path d="M 698.4,505.2 L 698.4,510.5" fill="none" stroke="currentColor" stroke-width="1.7" /><path d="M 698.4,510.5 L 698.4,515.7" fill="none" stroke="#E53F3F" stroke-width="1.7" /><path d="M 695.9 479.0Q 695.9 476.8, 697.0 475.6Q 698.0 474.4, 700.0 474.4Q 702.0 474.4, 703.0 475.6Q 704.1 476.8, 704.1 479.0Q 704.1 481.1, 703.0 482.4Q 702.0 483.6, 700.0 483.6Q 698.0 483.6, 697.0 482.4Q 695.9 481.1, 695.9 479.0M 700.0 482.6Q 701.4 482.6, 702.1 481.7Q 702.8 480.7, 702.8 479.0Q 702.8 477.2, 702.1 476.3Q 701.4 475.4, 700.0 475.4Q 698.6 475.4, 697.9 476.3Q 697.2 477.2, 697.2 479.0Q 697.2 480.8, 697.9 481.7Q 698.6 482.6, 700.0 482.6" fill="#E53F3F"/><path d="M 696.6 500.0Q 696.6 497.8, 697.6 496.6Q 698.6 495.4, 700.6 495.4Q 702.5 495.4, 703.4 496.7L 702.6 497.4Q 701.9 496.5, 700.6 496.5Q 699.3 496.5, 698.6 497.4Q 697.8 498.3, 697.8 500.0Q 697.8 501.7, 698.6 502.6Q 699.3 503.5, 700.8 503.5Q 701.7 503.5, 702.9 503.0L 703.2 503.9Q 702.8 504.2, 702.1 504.4Q 701.4 504.6, 700.6 504.6Q 698.6 504.6, 697.6 503.4Q 696.6 502.2, 696.6 500.0" fill="currentColor"/><path d="M 695.9 521.0Q 695.9 518.8, 697.0 517.6Q 698.0 516.4, 700.0 516.4Q 702.0 516.4, 703.0 517.6Q 704.1 518.8, 704.1 521.0Q 704.1 523.1, 703.0 524.4Q 702.0 525.6, 700.0 525.6Q 698.0 525.6, 697.0 524.4Q 695.9 523.1, 695.9 521.0M 700.0 524.6Q 701.4 524.6, 702.1 523.7Q 702.8 522.7, 702.8 521.0Q 702.8 519.2, 702.1 518.3Q 701.4 517.4, 700.0 517.4Q 698.6 517.4, 697.9 518.3Q 697.2 519.2, 697.2 521.0Q 697.2 522.8, 697.9 523.7Q 698.6 524.6, 700.0 524.6" fill="#E53F3F"/></g><g transform="translate(88.3,-12.9)"><path d="M 688.0,461.6 L 689.7,469.8" fill="none" stroke="#E53F3F" stroke-width="1.7" /><path d="M 689.7,469.8 L 691.5,478.0" fill="none" stroke="currentColor" stroke-width="1.7" /><path d="M 684.9,462.3 L 686.6,470.5" fill="none" stroke="#E53F3F" stroke-width="1.7" /><path d="M 686.6,470.5 L 688.4,478.7" fill="none" stroke="currentColor" stroke-width="1.7" /><path d="M 689.7,477.2 L 697.3,480.6" fill="none" stroke="currentColor" stroke-width="1.7" /><path d="M 697.3,480.6 L 704.9,484.0" fill="none" stroke="#338CF2" stroke-width="1.7" /><path d="M 713.0,483.4 L 720.1,479.3" fill="none" stroke="#338CF2" stroke-width="1.7" /><path d="M 720.1,479.3 L 727.2,475.2" fill="none" stroke="currentColor" stroke-width="1.7" /><path d="M 725.6,476.1 L 732.7,480.2" fill="none" stroke="currentColor" stroke-width="1.7" /><path d="M 732.7,480.2 L 739.8,484.3" fill="none" stroke="#E53F3F" stroke-width="1.7" /><path d="M 727.2,473.4 L 734.3,477.5" fill="none" stroke="currentColor" stroke-width="1.7" /><path d="M 734.3,477.5 L 741.4,481.6" fill="none" stroke="#E53F3F" stroke-width="1.7" /><path d="M 727.2,475.2 L 727.2,467.4" fill="none" stroke="currentColor" stroke-width="1.7" /><path d="M 727.2,467.4 L 727.2,459.6" fill="none" stroke="#E53F3F" stroke-width="1.7" /><path d="M 708.4,490.9 L 707.6,498.9" fill="none" stroke="#338CF2" stroke-width="1.7" /><path d="M 707.6,498.9 L 706.8,506.8" fill="none" stroke="currentColor" stroke-width="1.7" /><path d="M 706.8,506.8 L 717.4,525.0" fill="none" stroke="currentColor" stroke-width="1.7" /><path d="M 717.4,525.0 L 712.1,530.9" fill="none" stroke="currentColor" stroke-width="1.7" /><path d="M 712.1,530.9 L 706.8,536.8" fill="none" stroke="#CC9E19" stroke-width="1.7" /><path d="M 699.7,539.1 L 691.9,535.6" fill="none" stroke="#CC9E19" stroke-width="1.7" /><path d="M 691.9,535.6 L 684.0,532.2" fill="none" stroke="currentColor" stroke-width="1.7" /><path d="M 684.0,532.2 L 677.1,537.1 L 676.3,535.7 Z" fill="currentColor" stroke="currentColor" stroke-width="0.4" /><path d="M 668.6,539.2 L 670.2,542.0 L 677.1,537.1 L 676.3,535.7 Z" fill="#727272" stroke="#727272" stroke-width="0.4" /><path d="M 684.0,532.2 L 686.2,511.2" fill="none" stroke="currentColor" stroke-width="1.7" /><path d="M 686.2,511.2 L 682.4,504.6" fill="none" stroke="currentColor" stroke-width="1.7" /><path d="M 682.4,504.6 L 678.6,498.1" fill="none" stroke="#338CF2" stroke-width="1.7" /><path d="M 679.7,488.4 L 684.7,482.8" fill="none" stroke="#338CF2" stroke-width="1.7" /><path d="M 684.7,482.8 L 689.7,477.2" fill="none" stroke="currentColor" stroke-width="1.7" /><path d="M 686.2,511.2 L 706.8,506.8" fill="none" stroke="currentColor" stroke-width="1.7" /><path d="M 709.9,505.8 L 710.0,506.4" fill="none" stroke="currentColor" stroke-width="0.8" /><path d="M 712.9,504.8 L 713.2,506.0" fill="none" stroke="currentColor" stroke-width="0.8" /><path d="M 716.0,503.8 L 716.4,505.7" fill="none" stroke="currentColor" stroke-width="0.8" /><path d="M 719.1,502.9 L 719.6,505.3" fill="none" stroke="currentColor" stroke-width="0.8" /><path d="M 722.1,501.9 L 722.8,505.0" fill="none" stroke="currentColor" stroke-width="0.8" /><path d="M 683.1,512.2 L 683.0,511.5" fill="none" stroke="currentColor" stroke-width="0.8" /><path d="M 680.0,513.1 L 679.8,511.9" fill="none" stroke="currentColor" stroke-width="0.8" /><path d="M 677.0,514.1 L 676.6,512.3" fill="none" stroke="currentColor" stroke-width="0.8" /><path d="M 673.9,515.1 L 673.4,512.6" fill="none" stroke="currentColor" stroke-width="0.8" /><path d="M 670.8,516.1 L 670.2,513.0" fill="none" stroke="currentColor" stroke-width="0.8" /><path d="M 690.1,477.4 L 689.7,477.2 L 689.4,477.5" fill="none" stroke="currentColor" stroke-width="1.7" /><path d="M 726.9,475.4 L 727.2,475.2 L 727.2,474.8" fill="none" stroke="currentColor" stroke-width="1.7" /><path d="M 716.8,524.1 L 717.4,525.0 L 717.1,525.3" fill="none" stroke="currentColor" stroke-width="1.7" /><path d="M 684.4,532.3 L 684.0,532.2 L 684.1,531.1" fill="none" stroke="currentColor" stroke-width="1.7" /><path d="M 681.2 456.6Q 681.2 454.5, 682.2 453.3Q 683.3 452.1, 685.3 452.1Q 687.3 452.1, 688.3 453.3Q 689.4 454.5, 689.4 456.6Q 689.4 458.8, 688.3 460.0Q 687.2 461.3, 685.3 461.3Q 683.3 461.3, 682.2 460.0Q 681.2 458.8, 681.2 456.6M 685.3 460.2Q 686.6 460.2, 687.4 459.3Q 688.1 458.4, 688.1 456.6Q 688.1 454.9, 687.4 454.0Q 686.6 453.1, 685.3 453.1Q 683.9 453.1, 683.2 454.0Q 682.4 454.9, 682.4 456.6Q 682.4 458.4, 683.2 459.3Q 683.9 460.2, 685.3 460.2" fill="#E53F3F"/><path d="M 707.0 481.3L 709.9 486.1Q 710.2 486.5, 710.7 487.4Q 711.1 488.2, 711.2 488.3L 711.2 481.3L 712.4 481.3L 712.4 490.2L 711.1 490.2L 708.0 485.1Q 707.6 484.5, 707.2 483.8Q 706.9 483.1, 706.7 482.9L 706.7 490.2L 705.6 490.2L 705.6 481.3L 707.0 481.3" fill="#338CF2"/><path d="M 741.3 485.7Q 741.3 483.6, 742.4 482.4Q 743.4 481.2, 745.4 481.2Q 747.4 481.2, 748.5 482.4Q 749.5 483.6, 749.5 485.7Q 749.5 487.9, 748.4 489.1Q 747.4 490.3, 745.4 490.3Q 743.5 490.3, 742.4 489.1Q 741.3 487.9, 741.3 485.7M 745.4 489.3Q 746.8 489.3, 747.5 488.4Q 748.3 487.5, 748.3 485.7Q 748.3 484.0, 747.5 483.1Q 746.8 482.2, 745.4 482.2Q 744.1 482.2, 743.3 483.1Q 742.6 484.0, 742.6 485.7Q 742.6 487.5, 743.3 488.4Q 744.1 489.3, 745.4 489.3" fill="#E53F3F"/><path d="M 723.1 454.2Q 723.1 452.1, 724.2 450.9Q 725.2 449.7, 727.2 449.7Q 729.2 449.7, 730.2 450.9Q 731.3 452.1, 731.3 454.2Q 731.3 456.4, 730.2 457.6Q 729.1 458.9, 727.2 458.9Q 725.2 458.9, 724.2 457.6Q 723.1 456.4, 723.1 454.2M 727.2 457.9Q 728.6 457.9, 729.3 457.0Q 730.0 456.0, 730.0 454.2Q 730.0 452.5, 729.3 451.6Q 728.6 450.7, 727.2 450.7Q 725.8 450.7, 725.1 451.6Q 724.4 452.5, 724.4 454.2Q 724.4 456.0, 725.1 457.0Q 725.8 457.9, 727.2 457.9" fill="#E53F3F"/><path d="M 732.6 451.2L 735.6 451.2L 735.6 451.8L 732.6 451.8L 732.6 451.2" fill="#E53F3F"/><path d="M 700.8 543.8Q 700.9 543.8, 701.3 544.0Q 701.7 544.2, 702.1 544.3Q 702.6 544.4, 703.1 544.4Q 703.9 544.4, 704.4 544.0Q 704.9 543.6, 704.9 542.8Q 704.9 542.4, 704.6 542.0Q 704.4 541.7, 704.0 541.6Q 703.6 541.4, 703.0 541.2Q 702.2 541.0, 701.7 540.8Q 701.3 540.5, 700.9 540.1Q 700.6 539.6, 700.6 538.8Q 700.6 537.7, 701.4 537.0Q 702.1 536.3, 703.6 536.3Q 704.7 536.3, 705.8 536.8L 705.6 537.7Q 704.5 537.3, 703.7 537.3Q 702.8 537.3, 702.3 537.7Q 701.8 538.0, 701.9 538.6Q 701.9 539.1, 702.1 539.4Q 702.4 539.7, 702.7 539.8Q 703.1 540.0, 703.7 540.2Q 704.5 540.4, 705.0 540.7Q 705.4 541.0, 705.8 541.5Q 706.1 542.0, 706.1 542.8Q 706.1 544.1, 705.3 544.7Q 704.5 545.4, 703.1 545.4Q 702.3 545.4, 701.7 545.2Q 701.1 545.1, 700.4 544.8L 700.8 543.8" fill="#CC9E19"/><path d="M 650.5 538.3L 651.7 538.3L 651.7 546.1L 655.8 546.1L 655.8 547.2L 650.5 547.2L 650.5 538.3" fill="#727272"/><path d="M 661.6 540.7L 662.8 540.7L 659.4 550.3L 658.4 550.3L 659.4 547.2L 658.9 547.2L 656.7 540.7L 657.9 540.7L 659.8 546.2L 661.6 540.7" fill="#727272"/><path d="M 663.8 545.9Q 664.4 546.1, 664.8 546.2Q 665.2 546.3, 665.6 546.3Q 666.2 546.3, 666.5 546.1Q 666.8 545.8, 666.8 545.4Q 666.8 545.1, 666.7 544.9Q 666.5 544.7, 666.3 544.6Q 666.1 544.5, 665.5 544.4Q 665.4 544.3, 664.9 544.1Q 664.3 543.9, 664.0 543.5Q 663.7 543.1, 663.7 542.4Q 663.7 541.7, 664.3 541.1Q 664.9 540.6, 666.0 540.6Q 666.5 540.6, 667.0 540.7Q 667.4 540.8, 667.9 541.0L 667.6 542.0Q 667.2 541.8, 666.8 541.7Q 666.4 541.6, 666.0 541.6Q 665.5 541.6, 665.1 541.8Q 664.8 542.1, 664.8 542.4Q 664.8 542.8, 665.1 543.0Q 665.3 543.1, 665.9 543.3Q 666.0 543.4, 666.1 543.4L 666.4 543.5Q 666.9 543.7, 667.3 543.9Q 667.6 544.0, 667.8 544.4Q 668.0 544.8, 668.0 545.4Q 668.0 546.3, 667.4 546.8Q 666.7 547.3, 665.7 547.3Q 665.0 547.3, 664.5 547.2Q 664.0 547.0, 663.4 546.8L 663.8 545.9" fill="#727272"/><path d="M 663.5 488.5L 664.7 488.5L 664.7 492.3L 669.2 492.3L 669.2 488.5L 670.5 488.5L 670.5 497.4L 669.2 497.4L 669.2 493.3L 664.7 493.3L 664.7 497.4L 663.5 497.4L 663.5 488.5" fill="#338CF2"/><path d="M 673.6 488.5L 676.5 493.2Q 676.8 493.7, 677.3 494.5Q 677.8 495.3, 677.8 495.4L 677.8 488.5L 679.0 488.5L 679.0 497.4L 677.8 497.4L 674.6 492.2Q 674.3 491.6, 673.9 490.9Q 673.5 490.2, 673.4 490.0L 673.4 497.4L 672.2 497.4L 672.2 488.5L 673.6 488.5" fill="#338CF2"/><path d="M 723.8 497.9L 725.0 497.9L 725.0 501.7L 729.6 501.7L 729.6 497.9L 730.8 497.9L 730.8 506.8L 729.6 506.8L 729.6 502.7L 725.0 502.7L 725.0 506.8L 723.8 506.8L 723.8 497.9" fill="currentColor"/><path d="M 662.1 511.1L 663.3 511.1L 663.3 514.9L 667.9 514.9L 667.9 511.1L 669.1 511.1L 669.1 520.0L 667.9 520.0L 667.9 515.9L 663.3 515.9L 663.3 520.0L 662.1 520.0L 662.1 511.1" fill="currentColor"/></g><g transform="translate(-501.7,273.1)"><path d="M 688.0,461.6 L 689.7,469.8" fill="none" stroke="#E53F3F" stroke-width="1.7" /><path d="M 689.7,469.8 L 691.5,478.0" fill="none" stroke="currentColor" stroke-width="1.7" /><path d="M 684.9,462.3 L 686.6,470.5" fill="none" stroke="#E53F3F" stroke-width="1.7" /><path d="M 686.6,470.5 L 688.4,478.7" fill="none" stroke="currentColor" stroke-width="1.7" /><path d="M 689.7,477.2 L 697.3,480.6" fill="none" stroke="currentColor" stroke-width="1.7" /><path d="M 697.3,480.6 L 704.9,484.0" fill="none" stroke="#338CF2" stroke-width="1.7" /><path d="M 713.0,483.4 L 720.1,479.3" fill="none" stroke="#338CF2" stroke-width="1.7" /><path d="M 720.1,479.3 L 727.2,475.2" fill="none" stroke="currentColor" stroke-width="1.7" /><path d="M 725.6,476.1 L 732.7,480.2" fill="none" stroke="currentColor" stroke-width="1.7" /><path d="M 732.7,480.2 L 739.8,484.3" fill="none" stroke="#E53F3F" stroke-width="1.7" /><path d="M 727.2,473.4 L 734.3,477.5" fill="none" stroke="currentColor" stroke-width="1.7" /><path d="M 734.3,477.5 L 741.4,481.6" fill="none" stroke="#E53F3F" stroke-width="1.7" /><path d="M 727.2,475.2 L 727.2,467.4" fill="none" stroke="currentColor" stroke-width="1.7" /><path d="M 727.2,467.4 L 727.2,459.6" fill="none" stroke="#E53F3F" stroke-width="1.7" /><path d="M 708.4,490.9 L 707.6,498.9" fill="none" stroke="#338CF2" stroke-width="1.7" /><path d="M 707.6,498.9 L 706.8,506.8" fill="none" stroke="currentColor" stroke-width="1.7" /><path d="M 706.8,506.8 L 717.4,525.0" fill="none" stroke="currentColor" stroke-width="1.7" /><path d="M 717.4,525.0 L 712.1,530.9" fill="none" stroke="currentColor" stroke-width="1.7" /><path d="M 712.1,530.9 L 706.8,536.8" fill="none" stroke="#CC9E19" stroke-width="1.7" /><path d="M 699.7,539.1 L 691.9,535.6" fill="none" stroke="#CC9E19" stroke-width="1.7" /><path d="M 691.9,535.6 L 684.0,532.2" fill="none" stroke="currentColor" stroke-width="1.7" /><path d="M 684.0,532.2 L 677.1,537.1 L 676.3,535.7 Z" fill="currentColor" stroke="currentColor" stroke-width="0.4" /><path d="M 668.6,539.2 L 670.2,542.0 L 677.1,537.1 L 676.3,535.7 Z" fill="#727272" stroke="#727272" stroke-width="0.4" /><path d="M 684.0,532.2 L 686.2,511.2" fill="none" stroke="currentColor" stroke-width="1.7" /><path d="M 686.2,511.2 L 682.4,504.6" fill="none" stroke="currentColor" stroke-width="1.7" /><path d="M 682.4,504.6 L 678.6,498.1" fill="none" stroke="#338CF2" stroke-width="1.7" /><path d="M 679.7,488.4 L 684.7,482.8" fill="none" stroke="#338CF2" stroke-width="1.7" /><path d="M 684.7,482.8 L 689.7,477.2" fill="none" stroke="currentColor" stroke-width="1.7" /><path d="M 686.2,511.2 L 706.8,506.8" fill="none" stroke="currentColor" stroke-width="1.7" /><path d="M 709.9,505.8 L 710.0,506.4" fill="none" stroke="currentColor" stroke-width="0.8" /><path d="M 712.9,504.8 L 713.2,506.0" fill="none" stroke="currentColor" stroke-width="0.8" /><path d="M 716.0,503.8 L 716.4,505.7" fill="none" stroke="currentColor" stroke-width="0.8" /><path d="M 719.1,502.9 L 719.6,505.3" fill="none" stroke="currentColor" stroke-width="0.8" /><path d="M 722.1,501.9 L 722.8,505.0" fill="none" stroke="currentColor" stroke-width="0.8" /><path d="M 683.1,512.2 L 683.0,511.5" fill="none" stroke="currentColor" stroke-width="0.8" /><path d="M 680.0,513.1 L 679.8,511.9" fill="none" stroke="currentColor" stroke-width="0.8" /><path d="M 677.0,514.1 L 676.6,512.3" fill="none" stroke="currentColor" stroke-width="0.8" /><path d="M 673.9,515.1 L 673.4,512.6" fill="none" stroke="currentColor" stroke-width="0.8" /><path d="M 670.8,516.1 L 670.2,513.0" fill="none" stroke="currentColor" stroke-width="0.8" /><path d="M 690.1,477.4 L 689.7,477.2 L 689.4,477.5" fill="none" stroke="currentColor" stroke-width="1.7" /><path d="M 726.9,475.4 L 727.2,475.2 L 727.2,474.8" fill="none" stroke="currentColor" stroke-width="1.7" /><path d="M 716.8,524.1 L 717.4,525.0 L 717.1,525.3" fill="none" stroke="currentColor" stroke-width="1.7" /><path d="M 684.4,532.3 L 684.0,532.2 L 684.1,531.1" fill="none" stroke="currentColor" stroke-width="1.7" /><path d="M 681.2 456.6Q 681.2 454.5, 682.2 453.3Q 683.3 452.1, 685.3 452.1Q 687.3 452.1, 688.3 453.3Q 689.4 454.5, 689.4 456.6Q 689.4 458.8, 688.3 460.0Q 687.2 461.3, 685.3 461.3Q 683.3 461.3, 682.2 460.0Q 681.2 458.8, 681.2 456.6M 685.3 460.2Q 686.6 460.2, 687.4 459.3Q 688.1 458.4, 688.1 456.6Q 688.1 454.9, 687.4 454.0Q 686.6 453.1, 685.3 453.1Q 683.9 453.1, 683.2 454.0Q 682.4 454.9, 682.4 456.6Q 682.4 458.4, 683.2 459.3Q 683.9 460.2, 685.3 460.2" fill="#E53F3F"/><path d="M 707.0 481.3L 709.9 486.1Q 710.2 486.5, 710.7 487.4Q 711.1 488.2, 711.2 488.3L 711.2 481.3L 712.4 481.3L 712.4 490.2L 711.1 490.2L 708.0 485.1Q 707.6 484.5, 707.2 483.8Q 706.9 483.1, 706.7 482.9L 706.7 490.2L 705.6 490.2L 705.6 481.3L 707.0 481.3" fill="#338CF2"/><path d="M 741.3 485.7Q 741.3 483.6, 742.4 482.4Q 743.4 481.2, 745.4 481.2Q 747.4 481.2, 748.5 482.4Q 749.5 483.6, 749.5 485.7Q 749.5 487.9, 748.4 489.1Q 747.4 490.3, 745.4 490.3Q 743.5 490.3, 742.4 489.1Q 741.3 487.9, 741.3 485.7M 745.4 489.3Q 746.8 489.3, 747.5 488.4Q 748.3 487.5, 748.3 485.7Q 748.3 484.0, 747.5 483.1Q 746.8 482.2, 745.4 482.2Q 744.1 482.2, 743.3 483.1Q 742.6 484.0, 742.6 485.7Q 742.6 487.5, 743.3 488.4Q 744.1 489.3, 745.4 489.3" fill="#E53F3F"/><path d="M 723.1 454.2Q 723.1 452.1, 724.2 450.9Q 725.2 449.7, 727.2 449.7Q 729.2 449.7, 730.2 450.9Q 731.3 452.1, 731.3 454.2Q 731.3 456.4, 730.2 457.6Q 729.1 458.9, 727.2 458.9Q 725.2 458.9, 724.2 457.6Q 723.1 456.4, 723.1 454.2M 727.2 457.9Q 728.6 457.9, 729.3 457.0Q 730.0 456.0, 730.0 454.2Q 730.0 452.5, 729.3 451.6Q 728.6 450.7, 727.2 450.7Q 725.8 450.7, 725.1 451.6Q 724.4 452.5, 724.4 454.2Q 724.4 456.0, 725.1 457.0Q 725.8 457.9, 727.2 457.9" fill="#E53F3F"/><path d="M 732.6 451.2L 735.6 451.2L 735.6 451.8L 732.6 451.8L 732.6 451.2" fill="#E53F3F"/><path d="M 700.8 543.8Q 700.9 543.8, 701.3 544.0Q 701.7 544.2, 702.1 544.3Q 702.6 544.4, 703.1 544.4Q 703.9 544.4, 704.4 544.0Q 704.9 543.6, 704.9 542.8Q 704.9 542.4, 704.6 542.0Q 704.4 541.7, 704.0 541.6Q 703.6 541.4, 703.0 541.2Q 702.2 541.0, 701.7 540.8Q 701.3 540.5, 700.9 540.1Q 700.6 539.6, 700.6 538.8Q 700.6 537.7, 701.4 537.0Q 702.1 536.3, 703.6 536.3Q 704.7 536.3, 705.8 536.8L 705.6 537.7Q 704.5 537.3, 703.7 537.3Q 702.8 537.3, 702.3 537.7Q 701.8 538.0, 701.9 538.6Q 701.9 539.1, 702.1 539.4Q 702.4 539.7, 702.7 539.8Q 703.1 540.0, 703.7 540.2Q 704.5 540.4, 705.0 540.7Q 705.4 541.0, 705.8 541.5Q 706.1 542.0, 706.1 542.8Q 706.1 544.1, 705.3 544.7Q 704.5 545.4, 703.1 545.4Q 702.3 545.4, 701.7 545.2Q 701.1 545.1, 700.4 544.8L 700.8 543.8" fill="#CC9E19"/><path d="M 650.5 538.3L 651.7 538.3L 651.7 546.1L 655.8 546.1L 655.8 547.2L 650.5 547.2L 650.5 538.3" fill="#727272"/><path d="M 661.6 540.7L 662.8 540.7L 659.4 550.3L 658.4 550.3L 659.4 547.2L 658.9 547.2L 656.7 540.7L 657.9 540.7L 659.8 546.2L 661.6 540.7" fill="#727272"/><path d="M 663.8 545.9Q 664.4 546.1, 664.8 546.2Q 665.2 546.3, 665.6 546.3Q 666.2 546.3, 666.5 546.1Q 666.8 545.8, 666.8 545.4Q 666.8 545.1, 666.7 544.9Q 666.5 544.7, 666.3 544.6Q 666.1 544.5, 665.5 544.4Q 665.4 544.3, 664.9 544.1Q 664.3 543.9, 664.0 543.5Q 663.7 543.1, 663.7 542.4Q 663.7 541.7, 664.3 541.1Q 664.9 540.6, 666.0 540.6Q 666.5 540.6, 667.0 540.7Q 667.4 540.8, 667.9 541.0L 667.6 542.0Q 667.2 541.8, 666.8 541.7Q 666.4 541.6, 666.0 541.6Q 665.5 541.6, 665.1 541.8Q 664.8 542.1, 664.8 542.4Q 664.8 542.8, 665.1 543.0Q 665.3 543.1, 665.9 543.3Q 666.0 543.4, 666.1 543.4L 666.4 543.5Q 666.9 543.7, 667.3 543.9Q 667.6 544.0, 667.8 544.4Q 668.0 544.8, 668.0 545.4Q 668.0 546.3, 667.4 546.8Q 666.7 547.3, 665.7 547.3Q 665.0 547.3, 664.5 547.2Q 664.0 547.0, 663.4 546.8L 663.8 545.9" fill="#727272"/><path d="M 663.5 488.5L 664.7 488.5L 664.7 492.3L 669.2 492.3L 669.2 488.5L 670.5 488.5L 670.5 497.4L 669.2 497.4L 669.2 493.3L 664.7 493.3L 664.7 497.4L 663.5 497.4L 663.5 488.5" fill="#338CF2"/><path d="M 673.6 488.5L 676.5 493.2Q 676.8 493.7, 677.3 494.5Q 677.8 495.3, 677.8 495.4L 677.8 488.5L 679.0 488.5L 679.0 497.4L 677.8 497.4L 674.6 492.2Q 674.3 491.6, 673.9 490.9Q 673.5 490.2, 673.4 490.0L 673.4 497.4L 672.2 497.4L 672.2 488.5L 673.6 488.5" fill="#338CF2"/><path d="M 723.8 497.9L 725.0 497.9L 725.0 501.7L 729.6 501.7L 729.6 497.9L 730.8 497.9L 730.8 506.8L 729.6 506.8L 729.6 502.7L 725.0 502.7L 725.0 506.8L 723.8 506.8L 723.8 497.9" fill="currentColor"/><path d="M 662.1 511.1L 663.3 511.1L 663.3 514.9L 667.9 514.9L 667.9 511.1L 669.1 511.1L 669.1 520.0L 667.9 520.0L 667.9 515.9L 663.3 515.9L 663.3 520.0L 662.1 520.0L 662.1 511.1" fill="currentColor"/></g><g transform="translate(-381.5,243.9)"><path d="M 702.2,512.6 L 707.5,498.1" fill="none" stroke="currentColor" stroke-width="1.7" /><path d="M 706.9,499.8 L 715.3,498.3" fill="none" stroke="currentColor" stroke-width="1.7" /><path d="M 715.3,498.3 L 723.7,496.9" fill="none" stroke="#E53F3F" stroke-width="1.7" /><path d="M 706.3,496.7 L 714.7,495.2" fill="none" stroke="currentColor" stroke-width="1.7" /><path d="M 714.7,495.2 L 723.1,493.8" fill="none" stroke="#E53F3F" stroke-width="1.7" /><path d="M 707.5,498.1 L 702.9,492.7" fill="none" stroke="currentColor" stroke-width="1.7" /><path d="M 702.9,492.7 L 698.4,487.2" fill="none" stroke="#727272" stroke-width="1.7" /><path d="M 707.2,498.8 L 707.5,498.1 L 707.3,497.8" fill="none" stroke="currentColor" stroke-width="1.7" /><path d="M 696.9 517.9Q 696.9 515.7, 697.9 514.5Q 699.0 513.3, 700.9 513.3Q 702.8 513.3, 703.8 514.6L 702.9 515.3Q 702.2 514.4, 700.9 514.4Q 699.6 514.4, 698.9 515.3Q 698.2 516.2, 698.2 517.9Q 698.2 519.7, 698.9 520.6Q 699.6 521.5, 701.1 521.5Q 702.1 521.5, 703.2 520.9L 703.6 521.8Q 703.1 522.1, 702.4 522.3Q 701.7 522.5, 700.9 522.5Q 699.0 522.5, 697.9 521.3Q 696.9 520.1, 696.9 517.9" fill="currentColor"/><path d="M 704.8 514.8L 707.9 514.8L 707.9 515.5L 704.8 515.5L 704.8 514.8" fill="currentColor"/><path d="M 724.1 494.5Q 724.1 492.4, 725.1 491.2Q 726.2 490.0, 728.2 490.0Q 730.2 490.0, 731.2 491.2Q 732.3 492.4, 732.3 494.5Q 732.3 496.7, 731.2 497.9Q 730.1 499.1, 728.2 499.1Q 726.2 499.1, 725.1 497.9Q 724.1 496.7, 724.1 494.5M 728.2 498.1Q 729.5 498.1, 730.3 497.2Q 731.0 496.3, 731.0 494.5Q 731.0 492.7, 730.3 491.9Q 729.5 491.0, 728.2 491.0Q 726.8 491.0, 726.1 491.9Q 725.4 492.7, 725.4 494.5Q 725.4 496.3, 726.1 497.2Q 726.8 498.1, 728.2 498.1" fill="#E53F3F"/><path d="M 668.1 485.2Q 668.2 485.2, 668.6 485.4Q 669.0 485.5, 669.4 485.7Q 669.9 485.8, 670.4 485.8Q 671.2 485.8, 671.7 485.4Q 672.2 484.9, 672.2 484.2Q 672.2 483.7, 671.9 483.4Q 671.7 483.1, 671.3 483.0Q 670.9 482.8, 670.3 482.6Q 669.5 482.4, 669.0 482.1Q 668.6 481.9, 668.2 481.4Q 667.9 481.0, 667.9 480.2Q 667.9 479.0, 668.7 478.3Q 669.4 477.6, 670.9 477.6Q 672.0 477.6, 673.2 478.1L 672.9 479.1Q 671.8 478.7, 671.0 478.7Q 670.1 478.7, 669.6 479.0Q 669.2 479.4, 669.2 480.0Q 669.2 480.5, 669.4 480.8Q 669.7 481.1, 670.0 481.2Q 670.4 481.4, 671.0 481.6Q 671.8 481.8, 672.3 482.1Q 672.7 482.3, 673.1 482.9Q 673.4 483.4, 673.4 484.2Q 673.4 485.5, 672.6 486.1Q 671.8 486.8, 670.4 486.8Q 669.6 486.8, 669.0 486.6Q 668.4 486.4, 667.7 486.2L 668.1 485.2" fill="#727272"/><path d="M 674.7 482.1Q 674.7 479.9, 675.7 478.7Q 676.8 477.5, 678.8 477.5Q 680.6 477.5, 681.6 478.8L 680.7 479.5Q 680.0 478.6, 678.8 478.6Q 677.4 478.6, 676.7 479.5Q 676.0 480.4, 676.0 482.1Q 676.0 483.8, 676.7 484.7Q 677.5 485.6, 678.9 485.6Q 679.9 485.6, 681.0 485.1L 681.4 486.0Q 680.9 486.3, 680.2 486.5Q 679.5 486.7, 678.7 486.7Q 676.8 486.7, 675.7 485.5Q 674.7 484.3, 674.7 482.1" fill="#727272"/><path d="M 682.7 483.3Q 682.7 481.7, 683.5 480.8Q 684.3 480.0, 685.8 480.0Q 687.3 480.0, 688.1 480.8Q 688.9 481.7, 688.9 483.3Q 688.9 484.9, 688.1 485.8Q 687.3 486.6, 685.8 486.6Q 684.3 486.6, 683.5 485.8Q 682.7 484.9, 682.7 483.3M 684.0 483.3Q 684.0 484.5, 684.4 485.1Q 684.9 485.7, 685.8 485.7Q 686.7 485.7, 687.2 485.1Q 687.7 484.5, 687.7 483.3Q 687.7 482.1, 687.2 481.5Q 686.7 480.9, 685.8 480.9Q 684.9 480.9, 684.4 481.5Q 684.0 482.1, 684.0 483.3" fill="#727272"/><path d="M 696.7 486.5L 695.8 483.9L 692.2 483.9L 691.3 486.5L 690.1 486.5L 693.2 477.6L 694.7 477.6L 697.9 486.5L 696.7 486.5M 692.6 482.9L 695.4 482.9L 694.0 478.9L 692.6 482.9" fill="#727272"/></g><g transform="translate(97.5,271.7)"><path d="M 659.0,498.3 L 667.0,496.9" fill="none" stroke="#E53F3F" stroke-width="1.7" /><path d="M 667.0,496.9 L 674.9,495.5" fill="none" stroke="currentColor" stroke-width="1.7" /><path d="M 676.1,496.9 L 678.8,489.3" fill="none" stroke="currentColor" stroke-width="1.7" /><path d="M 678.8,489.3 L 681.6,481.6" fill="none" stroke="#E53F3F" stroke-width="1.7" /><path d="M 673.1,495.8 L 675.9,488.2" fill="none" stroke="currentColor" stroke-width="1.7" /><path d="M 675.9,488.2 L 678.7,480.6" fill="none" stroke="#E53F3F" stroke-width="1.7" /><path d="M 674.9,495.5 L 688.4,511.6" fill="none" stroke="currentColor" stroke-width="1.7" /><path d="M 688.4,511.6 L 709.1,507.9" fill="none" stroke="currentColor" stroke-width="1.7" /><path d="M 710.2,509.3 L 713.0,501.7" fill="none" stroke="currentColor" stroke-width="1.7" /><path d="M 713.0,501.7 L 715.8,494.1" fill="none" stroke="#E53F3F" stroke-width="1.7" /><path d="M 707.3,508.2 L 710.1,500.6" fill="none" stroke="currentColor" stroke-width="1.7" /><path d="M 710.1,500.6 L 712.8,493.0" fill="none" stroke="#E53F3F" stroke-width="1.7" /><path d="M 709.1,507.9 L 714.0,513.9" fill="none" stroke="currentColor" stroke-width="1.7" /><path d="M 714.0,513.9 L 719.0,519.8" fill="none" stroke="#727272" stroke-width="1.7" /><path d="M 674.5,495.6 L 674.9,495.5 L 675.6,496.3" fill="none" stroke="currentColor" stroke-width="1.7" /><path d="M 687.7,510.8 L 688.4,511.6 L 689.4,511.4" fill="none" stroke="currentColor" stroke-width="1.7" /><path d="M 708.0,508.1 L 709.1,507.9 L 709.3,508.2" fill="none" stroke="currentColor" stroke-width="1.7" /><path d="M 650.1 499.2Q 650.1 497.0, 651.2 495.8Q 652.2 494.6, 654.2 494.6Q 656.2 494.6, 657.3 495.8Q 658.3 497.0, 658.3 499.2Q 658.3 501.3, 657.2 502.6Q 656.2 503.8, 654.2 503.8Q 652.3 503.8, 651.2 502.6Q 650.1 501.3, 650.1 499.2M 654.2 502.8Q 655.6 502.8, 656.3 501.9Q 657.1 500.9, 657.1 499.2Q 657.1 497.4, 656.3 496.5Q 655.6 495.6, 654.2 495.6Q 652.9 495.6, 652.1 496.5Q 651.4 497.4, 651.4 499.2Q 651.4 501.0, 652.1 501.9Q 652.9 502.8, 654.2 502.8" fill="#E53F3F"/><path d="M 659.6 496.1L 662.6 496.1L 662.6 496.7L 659.6 496.7L 659.6 496.1" fill="#E53F3F"/><path d="M 678.0 475.8Q 678.0 473.6, 679.0 472.4Q 680.1 471.2, 682.1 471.2Q 684.1 471.2, 685.1 472.4Q 686.2 473.6, 686.2 475.8Q 686.2 477.9, 685.1 479.2Q 684.0 480.4, 682.1 480.4Q 680.1 480.4, 679.0 479.2Q 678.0 478.0, 678.0 475.8M 682.1 479.4Q 683.4 479.4, 684.2 478.5Q 684.9 477.6, 684.9 475.8Q 684.9 474.0, 684.2 473.1Q 683.4 472.2, 682.1 472.2Q 680.7 472.2, 680.0 473.1Q 679.2 474.0, 679.2 475.8Q 679.2 477.6, 680.0 478.5Q 680.7 479.4, 682.1 479.4" fill="#E53F3F"/><path d="M 712.2 488.2Q 712.2 486.1, 713.2 484.9Q 714.3 483.7, 716.3 483.7Q 718.2 483.7, 719.3 484.9Q 720.4 486.1, 720.4 488.2Q 720.4 490.4, 719.3 491.6Q 718.2 492.8, 716.3 492.8Q 714.3 492.8, 713.2 491.6Q 712.2 490.4, 712.2 488.2M 716.3 491.8Q 717.6 491.8, 718.4 490.9Q 719.1 490.0, 719.1 488.2Q 719.1 486.5, 718.4 485.6Q 717.6 484.7, 716.3 484.7Q 714.9 484.7, 714.2 485.6Q 713.4 486.5, 713.4 488.2Q 713.4 490.0, 714.2 490.9Q 714.9 491.8, 716.3 491.8" fill="#E53F3F"/><path d="M 720.1 527.1Q 720.2 527.2, 720.6 527.3Q 721.0 527.5, 721.4 527.6Q 721.9 527.7, 722.4 527.7Q 723.2 527.7, 723.7 527.3Q 724.2 526.9, 724.2 526.2Q 724.2 525.7, 723.9 525.4Q 723.7 525.1, 723.3 524.9Q 722.9 524.8, 722.3 524.6Q 721.5 524.3, 721.0 524.1Q 720.6 523.9, 720.2 523.4Q 719.9 522.9, 719.9 522.1Q 719.9 521.0, 720.7 520.3Q 721.4 519.6, 722.9 519.6Q 724.0 519.6, 725.1 520.1L 724.9 521.1Q 723.8 520.6, 723.0 520.6Q 722.1 520.6, 721.6 521.0Q 721.2 521.4, 721.2 522.0Q 721.2 522.5, 721.4 522.7Q 721.7 523.0, 722.0 523.2Q 722.4 523.4, 723.0 523.6Q 723.8 523.8, 724.3 524.1Q 724.7 524.3, 725.1 524.8Q 725.4 525.3, 725.4 526.2Q 725.4 527.4, 724.6 528.1Q 723.8 528.8, 722.4 528.8Q 721.6 528.8, 721.0 528.6Q 720.4 528.4, 719.7 528.1L 720.1 527.1" fill="#727272"/><path d="M 726.7 524.0Q 726.7 521.8, 727.7 520.7Q 728.8 519.5, 730.7 519.5Q 732.6 519.5, 733.6 520.8L 732.7 521.5Q 732.0 520.5, 730.7 520.5Q 729.4 520.5, 728.7 521.4Q 728.0 522.3, 728.0 524.0Q 728.0 525.8, 728.7 526.7Q 729.4 527.6, 730.9 527.6Q 731.9 527.6, 733.0 527.0L 733.4 528.0Q 732.9 528.3, 732.2 528.5Q 731.5 528.6, 730.7 528.6Q 728.8 528.6, 727.7 527.4Q 726.7 526.3, 726.7 524.0" fill="#727272"/><path d="M 734.7 525.3Q 734.7 523.7, 735.5 522.8Q 736.3 521.9, 737.8 521.9Q 739.3 521.9, 740.1 522.8Q 740.9 523.7, 740.9 525.3Q 740.9 526.8, 740.1 527.7Q 739.3 528.6, 737.8 528.6Q 736.3 528.6, 735.5 527.7Q 734.7 526.8, 734.7 525.3M 735.9 525.3Q 735.9 526.5, 736.4 527.1Q 736.9 527.7, 737.8 527.7Q 738.7 527.7, 739.2 527.1Q 739.7 526.5, 739.7 525.3Q 739.7 524.1, 739.2 523.5Q 738.7 522.9, 737.8 522.9Q 736.9 522.9, 736.4 523.5Q 735.9 524.1, 735.9 525.3" fill="#727272"/><path d="M 748.7 528.5L 747.8 525.9L 744.2 525.9L 743.3 528.5L 742.1 528.5L 745.2 519.6L 746.7 519.6L 749.9 528.5L 748.7 528.5M 744.6 524.9L 747.4 524.9L 746.0 520.8L 744.6 524.9" fill="#727272"/></g><text x="20" y="24.0" font-size="11" letter-spacing="1.4" font-weight="700" fill="var(--ink-3)">A · WARUM EINE CARBOXYLIERUNG ATP KOSTET</text><line x1="20" y1="32.0" x2="980.0" y2="32.0" stroke="currentColor" stroke-width="1" opacity=".25"/><rect x="690.0" y="104.0" width="290.0" height="186.0" rx="8" fill="var(--cofaktor-bg)" stroke="var(--cofaktor)" stroke-width="1.2" opacity=".95"/><text x="20" y="300.0" font-size="11" letter-spacing="1.4" font-weight="700" fill="var(--ink-3)">B · DAS BIOTIN NIMMT DAS CO&#8322; AUF</text><line x1="20" y1="308.0" x2="980.0" y2="308.0" stroke="currentColor" stroke-width="1" opacity=".25"/><text x="20" y="614.0" font-size="11" letter-spacing="1.4" font-weight="700" fill="var(--ink-3)">C · UND GIBT ES AM ZWEITEN ZENTRUM WIEDER AB</text><line x1="20" y1="622.0" x2="980.0" y2="622.0" stroke="currentColor" stroke-width="1" opacity=".25"/><text x="20" y="898.0" font-size="11" letter-spacing="1.4" font-weight="700" fill="var(--ink-3)">D · DER SCHWENKARM UND DIE VIER HUMANEN CARBOXYLASEN</text><line x1="20" y1="906.0" x2="980.0" y2="906.0" stroke="currentColor" stroke-width="1" opacity=".25"/><rect x="20.0" y="930.0" width="470.0" height="118.0" rx="8" fill="var(--surface-2)" stroke="currentColor" stroke-width="1.2" opacity=".95"/><rect x="510.0" y="930.0" width="470.0" height="118.0" rx="8" fill="var(--cofaktor-bg)" stroke="var(--cofaktor)" stroke-width="1.2" opacity=".95"/><rect x="20.0" y="1158.0" width="960.0" height="96.0" rx="8" fill="var(--warn-bg)" stroke="var(--warn)" stroke-width="1.2" opacity=".95"/><rect x="20.0" y="1282.0" width="960.0" height="76.0" rx="8" fill="var(--drug-bg)" stroke="var(--drug)" stroke-width="1.2" opacity=".95"/><line x1="180.0" y1="170.0" x2="254.0" y2="170.0" stroke="currentColor" stroke-width="1.5" marker-end="url(#rxn)"/><line x1="468.0" y1="170.0" x2="542.0" y2="170.0" stroke="currentColor" stroke-width="1.5" marker-end="url(#rxn)"/><line x1="560.0" y1="486.0" x2="634.0" y2="486.0" stroke="currentColor" stroke-width="1.5" marker-end="url(#rxn)"/><line x1="560.0" y1="772.0" x2="634.0" y2="772.0" stroke="currentColor" stroke-width="1.5" marker-end="url(#rxn)"/><circle cx="316.5" cy="397.1" r="1.7" fill="var(--ink-2)"/><circle cx="323.5" cy="398.9" r="1.7" fill="var(--ink-2)"/><circle cx="310.2" cy="754.1" r="1.7" fill="var(--ink-2)"/><circle cx="307.4" cy="760.7" r="1.7" fill="var(--ink-2)"/><path d="M 320.0 398.0 A 35.4 35.4 0 0 0 301.5 446.0" fill="none" stroke="var(--warn)" stroke-width="1.40" stroke-linecap="round"/><polygon points="303.5,449.6 298.5,446.1 301.4,446.3 302.4,443.6" fill="var(--warn)"/><path d="M 295.6 467.4 A 44.6 44.6 0 0 0 354.7 439.1" fill="none" stroke="var(--warn)" stroke-width="1.40" stroke-linecap="round"/><polygon points="355.8,435.0 356.8,441.0 355.0,438.9 352.4,440.1" fill="var(--warn)"/><path d="M 358.7 424.5 A 10.4 10.4 0 0 1 356.5 411.7" fill="none" stroke="var(--warn)" stroke-width="1.40" stroke-linecap="round"/><polygon points="359.2,408.5 356.2,413.8 356.1,411.0 353.4,410.3" fill="var(--warn)"/><path d="M 305.7 757.1 A 47.9 47.9 0 0 0 236.8 741.1" fill="none" stroke="var(--warn)" stroke-width="1.40" stroke-linecap="round"/><polygon points="233.5,743.6 236.4,738.3 236.5,741.1 239.3,741.8" fill="var(--warn)"/><path d="M 215.5 748.7 A 10.1 10.1 0 0 0 203.2 746.5" fill="none" stroke="var(--warn)" stroke-width="1.40" stroke-linecap="round"/><polygon points="200.0,749.2 201.7,743.3 202.4,746.1 205.3,746.1" fill="var(--warn)"/><path d="M 191.9 738.7 A 10.4 10.4 0 0 0 191.3 725.8" fill="none" stroke="var(--warn)" stroke-width="1.40" stroke-linecap="round"/><polygon points="187.9,723.3 194.0,723.7 191.5,725.0 192.1,727.8" fill="var(--warn)"/><text x="20.0" y="54.0" font-size="12.5" fill="currentColor">Hydrogencarbonat ist kein Elektrophil. Erst das ATP macht daraus ein gemischtes Anhydrid, das in Kohlendioxid und Phosphat zerfällt.</text><text x="116.0" y="208.5" font-size="10.5" fill="var(--ink-3)" text-anchor="middle">Hydrogencarbonat</text><text x="217.0" y="158.0" font-size="10.5" fill="var(--cofaktor)" text-anchor="middle" font-weight="700">+ ATP</text><text x="217.0" y="192.0" font-size="10" fill="var(--ink-3)" text-anchor="middle">&#8722; ADP, &#8722; H&#8314;</text><text x="353.6" y="219.4" font-size="10.5" fill="var(--ink-3)" text-anchor="middle">Carboxyphosphat, ein gemischtes Anhydrid</text><text x="505.0" y="158.0" font-size="10.5" fill="var(--ink-3)" text-anchor="middle" font-weight="700">&#8722; P&#7522;</text><text x="604.0" y="215.0" font-size="10.5" fill="var(--ink-3)" text-anchor="middle">CO&#8322;</text><text x="708.0" y="126.0" font-size="11" fill="var(--cofaktor)" font-weight="700">DIE BILANZ</text><text x="708.0" y="148.0" font-size="12.5" fill="currentColor">Ein ATP wird zu ADP und Phosphat</text><text x="708.0" y="167.0" font-size="12.5" fill="currentColor">gespalten, und zwar hier, nicht bei</text><text x="708.0" y="186.0" font-size="12.5" fill="currentColor">der eigentlichen Carboxylierung.</text><text x="708.0" y="209.0" font-size="12" fill="var(--ink-3)">Der teure Schritt ist die Aktivierung.</text><text x="708.0" y="234.0" font-size="12" fill="var(--ink-3)">Das freigesetzte Phosphat bleibt im</text><text x="708.0" y="253.0" font-size="12" fill="var(--ink-3)">Zentrum und wird gleich als Base</text><text x="708.0" y="272.0" font-size="12" fill="var(--ink-3)">gebraucht.</text><text x="20.0" y="330.0" font-size="12.5" fill="currentColor">Carboxyliert wird N1&#8242;: der Ureidostickstoff am Ringfusionskohlenstoff C6a&#8242;, also der von der Valeriansäurekette abgewandte. Als Amid-Stickstoff</text><text x="20.0" y="349.0" font-size="12.5" fill="currentColor">ist er von sich aus kein Nucleophil. Erst wenn das Phosphat aus Zone A ihm sein Proton abnimmt, greift er das Kohlendioxid an.</text><text x="320.0" y="382.0" font-size="12.5" fill="var(--cofaktor)" text-anchor="middle" font-weight="700">P&#7522;</text><text x="320.0" y="366.0" font-size="10" fill="var(--ink-3)" text-anchor="middle">das Phosphat aus Zone A</text><text x="382.0" y="440.0" font-size="10.5" fill="var(--ink-3)">CO&#8322;</text><text x="271.0" y="554.5" font-size="10.5" fill="var(--ink-3)" text-anchor="middle">Biotin, über (CH&#8322;)&#8324;&#8722;CO an ein Lysin gebunden;</text><text x="271.0" y="569.5" font-size="10.5" fill="var(--ink-3)" text-anchor="middle">das Elektronenpaar der N&#8722;H-Bindung wird zur neuen N&#8722;C-Bindung</text><text x="793.8" y="559.8" font-size="10.5" fill="var(--ink-3)" text-anchor="middle">Carboxybiotin: das CO&#8322; ist jetzt gebunden</text><text x="793.8" y="574.8" font-size="10.5" fill="var(--ink-3)" text-anchor="middle">und wird nicht mehr in die Lösung entlassen</text><text x="20.0" y="644.0" font-size="12.5" fill="currentColor">Dort zerfällt das Carboxybiotin, und das dabei frei werdende Biotin-Anion ist selbst die Base: es nimmt dem Acetyl-CoA das α-Proton ab. Deshalb laufen</text><text x="20.0" y="663.0" font-size="12.5" fill="currentColor">Deprotonierung und Carboxylierung praktisch gleichzeitig ab. Das Enolat greift den Carboxylkohlenstoff an, und die N&#8722;C-Bindung bricht.</text><text x="203.8" y="845.8" font-size="10.5" fill="var(--ink-3)" text-anchor="middle">die N&#8722;C-Bindung bricht, das Biotin-Anion</text><text x="203.8" y="860.8" font-size="10.5" fill="var(--ink-3)" text-anchor="middle">wird frei und wirkt als Base; sein Paar</text><text x="203.8" y="875.8" font-size="10.5" fill="var(--ink-3)" text-anchor="middle">wandert ins Ureido-Carbonyl</text><text x="329.6" y="699.9" font-size="10.5" fill="var(--ink-3)" text-anchor="middle">Acetyl-CoA, als Enolat deprotoniert</text><text x="785.9" y="825.7" font-size="10.5" fill="var(--ink-3)" text-anchor="middle">Malonyl-CoA: der Baustein, an dem</text><text x="785.9" y="840.7" font-size="10.5" fill="var(--ink-3)" text-anchor="middle">die Fettsäuresynthese hängt</text><text x="38.0" y="952.0" font-size="11" fill="var(--ink-3)" font-weight="700">WARUM ZWEI ZENTREN UND EIN ARM</text><text x="38.0" y="974.0" font-size="12.5" fill="currentColor">Beide Halbreaktionen laufen an verschiedenen Stellen des</text><text x="38.0" y="993.0" font-size="12.5" fill="currentColor">Enzyms. Biotin und Lysin bilden zusammen einen etwa</text><text x="38.0" y="1012.0" font-size="12.5" fill="currentColor">16 Å langen Arm, der das gebundene CO&#8322; von einem</text><text x="38.0" y="1031.0" font-size="12.5" fill="currentColor">Zentrum zum anderen trägt, ohne es freizusetzen.</text><text x="528.0" y="952.0" font-size="11" fill="var(--cofaktor)" font-weight="700">DASSELBE PRINZIP AN ZWEI WEITEREN STELLEN</text><text x="528.0" y="974.0" font-size="12.5" fill="currentColor">Das Liponamid im Pyruvat-Dehydrogenase-Komplex und</text><text x="528.0" y="993.0" font-size="12.5" fill="currentColor">das Phosphopantethein der Fettsäure-Synthase arbeiten</text><text x="528.0" y="1012.0" font-size="12.5" fill="currentColor">genauso: ein reaktives Zwischenprodukt bleibt kovalent</text><text x="528.0" y="1031.0" font-size="12.5" fill="currentColor">gebunden und wandert zwischen den Zentren.</text><text x="20.0" y="1092.0" font-size="11.5" fill="var(--enzym)" font-weight="700">Pyruvat-Carboxylase</text><text x="20.0" y="1112.0" font-size="11" fill="currentColor">Pyruvat → Oxalacetat</text><text x="20.0" y="1130.0" font-size="11" fill="var(--ink-3)">startet die Gluconeogenese</text><text x="270.0" y="1092.0" font-size="11.5" fill="var(--enzym)" font-weight="700">Acetyl-CoA-Carboxylase</text><text x="270.0" y="1112.0" font-size="11" fill="currentColor">→ Malonyl-CoA</text><text x="270.0" y="1130.0" font-size="11" fill="var(--ink-3)">schrittbestimmend für die Fettsäuresynthese</text><text x="540.0" y="1092.0" font-size="11.5" fill="var(--enzym)" font-weight="700">Propionyl-CoA-Carboxylase</text><text x="540.0" y="1112.0" font-size="11" fill="currentColor">→ Methylmalonyl-CoA</text><text x="540.0" y="1130.0" font-size="11" fill="var(--ink-3)">danach folgt die Mutase aus Tafel M-16</text><text x="790.0" y="1092.0" font-size="11.5" fill="var(--enzym)" font-weight="700">Methylcrotonyl-CoA-Carboxylase</text><text x="790.0" y="1112.0" font-size="11" fill="currentColor">im Leucinabbau</text><text x="790.0" y="1130.0" font-size="11" fill="var(--ink-3)">der Marker im Neugeborenenscreening</text><text x="38.0" y="1180.0" font-size="11" fill="var(--warn)" font-weight="700">WORAN ES IN DER PRAXIS SCHEITERT</text><text x="38.0" y="1202.0" font-size="12.5" fill="currentColor">Ein alimentärer Biotinmangel ist selten, weil Darmbakterien Biotin bilden. Klinisch zählen drei Sonderfälle: der Biotinidase-Mangel, bei dem Biotin</text><text x="38.0" y="1221.0" font-size="12.5" fill="currentColor">nicht aus dem Biocytin zurückgewonnen wird; große Mengen rohen Eiklars, dessen Avidin das Biotin praktisch irreversibel bindet; und die</text><text x="38.0" y="1240.0" font-size="12.5" fill="currentColor">Langzeittherapie mit Antikonvulsiva.</text><text x="38.0" y="1304.0" font-size="11" fill="var(--drug)" font-weight="700">EINE LABORFALLE, DIE IM EXAMEN GERN GEFRAGT WIRD</text><text x="38.0" y="1326.0" font-size="12.5" fill="currentColor">Hochdosiertes Biotin als Nahrungsergänzung verfälscht Immunoassays, die auf der Biotin-Streptavidin-Bindung beruhen. Je nach Testaufbau</text><text x="38.0" y="1345.0" font-size="12.5" fill="currentColor">fallen TSH, Troponin oder die Schilddrüsenhormone falsch aus. Vor der Blutabnahme muss Biotin deshalb abgesetzt werden.</text></g></svg>