<svg viewBox="0 0 1000 1330" role="img" aria-label="S-Adenosylmethionin in vier Zonen. Zone A: Der Schwefel des Methionins greift mit einem freien Elektronenpaar das C5-Strich der Ribose des ATP an; gleichzeitig bricht die Bindung zwischen C5-Strich und dem Brueckensauerstoff, das gesamte Triphosphat, in der Zeichnung als PPP abgekuerzt, geht ab. Es entsteht das Sulfonium S-Adenosylmethionin; Wasser wird verbraucht, Phosphat und Diphosphat gehen ab. Zone B: Ein Nucleophil, hier Catecholat, greift die Methylgruppe von der dem Schwefel abgewandten Seite an, waehrend die Kohlenstoff-Schwefel-Bindung bricht und ihr Elektronenpaar am Schwefel bleibt; gezeichnet ist der Pfeil des Angriffs. Der Uebergangszustand traegt eine planare Methylgruppe zwischen zwei partiellen Bindungen. Produkte sind Guajacol und S-Adenosylhomocystein. Zone C: Radikal-SAM-Enzyme spalten stattdessen die Bindung zwischen Schwefel und C5-Strich homolytisch. Zwei Fischhakenpfeile zeigen den Elektronenweg: das Elektron des reduzierten Vier-Eisen-Vier-Schwefel-Clusters geht auf den Schwefel, und von den beiden Elektronen der Bindung geht eines auf das C5-Strich. Das zweite Elektron der Bindung bleibt am Schwefel; das steht im Text. So entstehen das neutrale L-Methionin und das 5-Strich-Desoxyadenosyl-Radikal, dasselbe wie aus Adenosylcobalamin. Das Methioningeruest steht in allen fuenf Strukturen in derselben Lage, damit der Unterschied zwischen den Stufen ins Auge faellt und nicht die Ausrichtung."><defs><marker id="pfk" viewBox="0 0 10 10" refX="9" refY="5" markerWidth="6.5" markerHeight="6.5" orient="auto"><path d="M 0 0 L 10 5 L 0 10 z" fill="var(--warn)"/></marker><marker id="fhl" viewBox="0 0 10 10" refX="9" refY="5" markerWidth="7.5" markerHeight="7.5" orient="auto"><path d="M 0 0 L 10 5 L 2.2 4.2 z" fill="var(--drug)"/></marker><marker id="fhr" viewBox="0 0 10 10" refX="9" refY="5" markerWidth="7.5" markerHeight="7.5" orient="auto"><path d="M 0 10 L 10 5 L 2.2 5.8 z" fill="var(--drug)"/></marker><marker id="rxn" viewBox="0 0 10 10" refX="9" refY="5" markerWidth="7" markerHeight="7" orient="auto"><path d="M 0 0 L 10 5 L 0 10 z" fill="currentColor"/></marker></defs><g font-family="Corbel, Segoe UI, system-ui, sans-serif" fill="currentColor"><g transform="translate(-545.9,-331.5)"><path d="M 756.6,495.2 L 749.2,499.3" fill="none" stroke="currentColor" stroke-width="1.7" /><path d="M 749.2,499.3 L 741.9,503.5" fill="none" stroke="#CC9E19" stroke-width="1.7" /><path d="M 734.8,503.5 L 727.5,499.2" fill="none" stroke="#CC9E19" stroke-width="1.7" /><path d="M 727.5,499.2 L 720.2,495.0" fill="none" stroke="currentColor" stroke-width="1.7" /><path d="M 720.2,495.0 L 701.9,505.4" fill="none" stroke="currentColor" stroke-width="1.7" /><path d="M 701.9,505.4 L 683.8,494.8" fill="none" stroke="currentColor" stroke-width="1.7" /><path d="M 683.8,494.8 L 683.1,487.2 L 684.6,487.2 Z" fill="currentColor" stroke="currentColor" stroke-width="0.4" /><path d="M 685.5,479.6 L 682.3,479.6 L 683.1,487.2 L 684.6,487.2 Z" fill="#338CF2" stroke="#338CF2" stroke-width="0.4" /><path d="M 683.8,494.8 L 665.6,505.1" fill="none" stroke="currentColor" stroke-width="1.7" /><path d="M 664.1,504.2 L 664.0,512.6" fill="none" stroke="currentColor" stroke-width="1.7" /><path d="M 664.0,512.6 L 664.0,520.9" fill="none" stroke="#E53F3F" stroke-width="1.7" /><path d="M 667.2,504.2 L 667.2,512.6" fill="none" stroke="currentColor" stroke-width="1.7" /><path d="M 667.2,512.6 L 667.1,520.9" fill="none" stroke="#E53F3F" stroke-width="1.7" /><path d="M 665.6,505.1 L 659.0,501.3" fill="none" stroke="currentColor" stroke-width="1.7" /><path d="M 659.0,501.3 L 652.3,497.4" fill="none" stroke="#E53F3F" stroke-width="1.7" /><path d="M 720.5,495.2 L 720.2,495.0 L 719.3,495.5" fill="none" stroke="currentColor" stroke-width="1.7" /><path d="M 702.9,504.8 L 701.9,505.4 L 701.0,504.8" fill="none" stroke="currentColor" stroke-width="1.7" /><path d="M 684.7,495.3 L 683.8,494.8 L 682.9,495.3" fill="none" stroke="currentColor" stroke-width="1.7" /><path d="M 666.5,504.6 L 665.6,505.1 L 665.3,504.9" fill="none" stroke="currentColor" stroke-width="1.7" /><path d="M 735.8 508.6Q 735.9 508.7, 736.3 508.8Q 736.7 509.0, 737.2 509.1Q 737.6 509.2, 738.1 509.2Q 738.9 509.2, 739.4 508.8Q 739.9 508.4, 739.9 507.7Q 739.9 507.2, 739.7 506.9Q 739.4 506.6, 739.1 506.4Q 738.7 506.3, 738.0 506.1Q 737.3 505.8, 736.8 505.6Q 736.3 505.4, 736.0 504.9Q 735.6 504.4, 735.6 503.6Q 735.6 502.5, 736.4 501.8Q 737.2 501.1, 738.7 501.1Q 739.7 501.1, 740.9 501.6L 740.6 502.6Q 739.5 502.1, 738.7 502.1Q 737.8 502.1, 737.4 502.5Q 736.9 502.9, 736.9 503.5Q 736.9 503.9, 737.1 504.2Q 737.4 504.5, 737.7 504.7Q 738.1 504.9, 738.7 505.0Q 739.5 505.3, 740.0 505.5Q 740.5 505.8, 740.8 506.3Q 741.2 506.8, 741.2 507.7Q 741.2 508.9, 740.3 509.6Q 739.5 510.2, 738.1 510.2Q 737.4 510.2, 736.8 510.1Q 736.2 509.9, 735.5 509.6L 735.8 508.6" fill="#CC9E19"/><path d="M 682.0 469.3L 684.9 474.0Q 685.2 474.5, 685.6 475.3Q 686.1 476.2, 686.1 476.2L 686.1 469.3L 687.3 469.3L 687.3 478.2L 686.1 478.2L 682.9 473.1Q 682.6 472.5, 682.2 471.8Q 681.8 471.1, 681.7 470.9L 681.7 478.2L 680.5 478.2L 680.5 469.3L 682.0 469.3" fill="#338CF2"/><path d="M 689.0 469.3L 690.2 469.3L 690.2 473.1L 694.8 473.1L 694.8 469.3L 696.0 469.3L 696.0 478.2L 694.8 478.2L 694.8 474.1L 690.2 474.1L 690.2 478.2L 689.0 478.2L 689.0 469.3" fill="#338CF2"/><path d="M 700.5 479.6Q 701.1 479.8, 701.4 480.1Q 701.6 480.5, 701.6 481.1Q 701.6 481.6, 701.4 482.0Q 701.1 482.4, 700.7 482.6Q 700.2 482.8, 699.6 482.8Q 699.0 482.8, 698.5 482.6Q 698.1 482.3, 697.7 481.9L 698.2 481.4Q 698.5 481.8, 698.8 482.0Q 699.1 482.1, 699.6 482.1Q 700.2 482.1, 700.5 481.8Q 700.8 481.5, 700.8 481.1Q 700.8 480.5, 700.5 480.2Q 700.1 479.9, 699.4 479.9L 699.0 479.9L 699.0 479.3L 699.4 479.3Q 700.0 479.3, 700.3 479.1Q 700.7 478.8, 700.7 478.2Q 700.7 477.9, 700.4 477.6Q 700.1 477.4, 699.6 477.4Q 699.1 477.4, 698.8 477.6Q 698.5 477.8, 698.3 478.2L 697.7 477.9Q 697.9 477.4, 698.4 477.1Q 698.9 476.7, 699.6 476.7Q 700.5 476.7, 701.0 477.1Q 701.5 477.6, 701.5 478.2Q 701.5 478.7, 701.3 479.1Q 701.0 479.4, 700.5 479.6" fill="#338CF2"/><path d="M 697.7 470.9L 699.3 470.9L 699.3 469.3L 700.0 469.3L 700.0 470.9L 701.6 470.9L 701.6 471.5L 700.0 471.5L 700.0 473.2L 699.3 473.2L 699.3 471.5L 697.7 471.5L 697.7 470.9" fill="#338CF2"/><path d="M 661.4 526.1Q 661.4 524.0, 662.5 522.8Q 663.5 521.6, 665.5 521.6Q 667.5 521.6, 668.6 522.8Q 669.6 524.0, 669.6 526.1Q 669.6 528.3, 668.5 529.5Q 667.5 530.7, 665.5 530.7Q 663.5 530.7, 662.5 529.5Q 661.4 528.3, 661.4 526.1M 665.5 529.7Q 666.9 529.7, 667.6 528.8Q 668.3 527.9, 668.3 526.1Q 668.3 524.4, 667.6 523.5Q 666.9 522.6, 665.5 522.6Q 664.2 522.6, 663.4 523.5Q 662.7 524.3, 662.7 526.1Q 662.7 527.9, 663.4 528.8Q 664.2 529.7, 665.5 529.7" fill="#E53F3F"/><path d="M 643.4 494.6Q 643.4 492.5, 644.5 491.3Q 645.6 490.1, 647.5 490.1Q 649.5 490.1, 650.6 491.3Q 651.6 492.5, 651.6 494.6Q 651.6 496.8, 650.6 498.0Q 649.5 499.2, 647.5 499.2Q 645.6 499.2, 644.5 498.0Q 643.4 496.8, 643.4 494.6M 647.5 498.2Q 648.9 498.2, 649.6 497.3Q 650.4 496.4, 650.4 494.6Q 650.4 492.9, 649.6 492.0Q 648.9 491.1, 647.5 491.1Q 646.2 491.1, 645.4 492.0Q 644.7 492.8, 644.7 494.6Q 644.7 496.4, 645.4 497.3Q 646.2 498.2, 647.5 498.2" fill="#E53F3F"/><path d="M 652.9 491.5L 656.0 491.5L 656.0 492.2L 652.9 492.2L 652.9 491.5" fill="#E53F3F"/></g><g transform="translate(-401.3,-294.5)"><path d="M 674.5,451.4 L 676.9,454.9" fill="none" stroke="#727272" stroke-width="1.7" /><path d="M 676.9,454.9 L 679.3,458.3" fill="none" stroke="#E53F3F" stroke-width="1.7" /><path d="M 680.5,468.9 L 677.3,475.7" fill="none" stroke="#E53F3F" stroke-width="1.7" /><path d="M 677.3,475.7 L 674.1,482.6" fill="none" stroke="currentColor" stroke-width="1.7" /><path d="M 684.4,496.7 L 683.9,497.1" fill="none" stroke="currentColor" stroke-width="0.8" /><path d="M 682.7,493.7 L 681.6,494.4" fill="none" stroke="currentColor" stroke-width="0.8" /><path d="M 680.9,490.6 L 679.4,491.7" fill="none" stroke="currentColor" stroke-width="0.8" /><path d="M 679.2,487.6 L 677.1,489.0" fill="none" stroke="currentColor" stroke-width="0.8" /><path d="M 677.4,484.5 L 674.9,486.3" fill="none" stroke="currentColor" stroke-width="0.8" /><path d="M 686.2,499.8 L 683.6,507.1" fill="none" stroke="currentColor" stroke-width="1.7" /><path d="M 683.6,507.1 L 681.1,514.4" fill="none" stroke="#E53F3F" stroke-width="1.7" /><path d="M 684.1,523.2 L 690.1,527.7" fill="none" stroke="#E53F3F" stroke-width="1.7" /><path d="M 690.1,527.7 L 696.1,532.3" fill="none" stroke="currentColor" stroke-width="1.7" /><path d="M 696.4,535.4 L 695.7,535.3" fill="none" stroke="currentColor" stroke-width="0.8" /><path d="M 696.6,538.5 L 695.4,538.4" fill="none" stroke="currentColor" stroke-width="0.8" /><path d="M 696.9,541.6 L 695.0,541.5" fill="none" stroke="#727272" stroke-width="0.8" /><path d="M 697.1,544.7 L 694.6,544.6" fill="none" stroke="#727272" stroke-width="0.8" /><path d="M 697.4,547.8 L 694.3,547.7" fill="none" stroke="#727272" stroke-width="0.8" /><path d="M 696.1,532.3 L 713.3,520.2" fill="none" stroke="currentColor" stroke-width="1.7" /><path d="M 713.3,520.2 L 720.7,521.9 L 720.2,523.4 Z" fill="currentColor" stroke="currentColor" stroke-width="0.4" /><path d="M 727.2,526.6 L 728.2,523.7 L 720.7,521.9 L 720.2,523.4 Z" fill="#E53F3F" stroke="#E53F3F" stroke-width="0.4" /><path d="M 713.3,520.2 L 707.2,500.1" fill="none" stroke="currentColor" stroke-width="1.7" /><path d="M 707.2,500.1 L 710.6,494.3 L 711.8,495.2 Z" fill="currentColor" stroke="currentColor" stroke-width="0.4" /><path d="M 716.5,490.3 L 714.0,488.4 L 710.6,494.3 L 711.8,495.2 Z" fill="#E53F3F" stroke="#E53F3F" stroke-width="0.4" /><path d="M 707.2,500.1 L 686.2,499.8" fill="none" stroke="currentColor" stroke-width="1.7" /><path d="M 686.0,500.1 L 686.2,499.8 L 687.2,499.8" fill="none" stroke="currentColor" stroke-width="1.7" /><path d="M 695.8,532.0 L 696.1,532.3 L 697.0,531.7" fill="none" stroke="currentColor" stroke-width="1.7" /><path d="M 712.4,520.8 L 713.3,520.2 L 713.0,519.2" fill="none" stroke="currentColor" stroke-width="1.7" /><path d="M 707.5,501.1 L 707.2,500.1 L 706.1,500.1" fill="none" stroke="currentColor" stroke-width="1.7" /><path d="M 657.0 441.9Q 658.5 441.9, 659.3 442.6Q 660.1 443.2, 660.1 444.5Q 660.1 445.7, 659.3 446.4Q 658.5 447.1, 657.0 447.1L 655.6 447.1L 655.6 450.8L 654.4 450.8L 654.4 441.9L 657.0 441.9M 657.0 446.1Q 657.9 446.1, 658.4 445.7Q 658.8 445.3, 658.8 444.5Q 658.8 443.7, 658.4 443.3Q 657.9 442.9, 657.0 442.9L 655.6 442.9L 655.6 446.1L 657.0 446.1" fill="#727272"/><path d="M 663.9 441.9Q 665.4 441.9, 666.2 442.6Q 666.9 443.2, 666.9 444.5Q 666.9 445.7, 666.1 446.4Q 665.4 447.1, 663.9 447.1L 662.4 447.1L 662.4 450.8L 661.2 450.8L 661.2 441.9L 663.9 441.9M 663.9 446.1Q 664.7 446.1, 665.2 445.7Q 665.7 445.3, 665.7 444.5Q 665.7 443.7, 665.2 443.3Q 664.8 442.9, 663.9 442.9L 662.4 442.9L 662.4 446.1L 663.9 446.1" fill="#727272"/><path d="M 670.7 441.9Q 672.3 441.9, 673.0 442.6Q 673.8 443.2, 673.8 444.5Q 673.8 445.7, 673.0 446.4Q 672.2 447.1, 670.7 447.1L 669.3 447.1L 669.3 450.8L 668.1 450.8L 668.1 441.9L 670.7 441.9M 670.7 446.1Q 671.6 446.1, 672.1 445.7Q 672.5 445.3, 672.5 444.5Q 672.5 443.7, 672.1 443.3Q 671.6 442.9, 670.7 442.9L 669.3 442.9L 669.3 446.1L 670.7 446.1" fill="#727272"/><path d="M 678.9 463.6Q 678.9 461.4, 680.0 460.2Q 681.0 459.0, 683.0 459.0Q 685.0 459.0, 686.0 460.2Q 687.1 461.4, 687.1 463.6Q 687.1 465.7, 686.0 467.0Q 684.9 468.2, 683.0 468.2Q 681.0 468.2, 680.0 467.0Q 678.9 465.7, 678.9 463.6M 683.0 467.2Q 684.4 467.2, 685.1 466.3Q 685.8 465.3, 685.8 463.6Q 685.8 461.8, 685.1 460.9Q 684.4 460.0, 683.0 460.0Q 681.6 460.0, 680.9 460.9Q 680.2 461.8, 680.2 463.6Q 680.2 465.4, 680.9 466.3Q 681.6 467.2, 683.0 467.2" fill="#E53F3F"/><path d="M 675.2 519.6Q 675.2 517.5, 676.3 516.3Q 677.3 515.1, 679.3 515.1Q 681.3 515.1, 682.4 516.3Q 683.4 517.5, 683.4 519.6Q 683.4 521.8, 682.3 523.0Q 681.3 524.3, 679.3 524.3Q 677.4 524.3, 676.3 523.0Q 675.2 521.8, 675.2 519.6M 679.3 523.3Q 680.7 523.3, 681.4 522.4Q 682.2 521.4, 682.2 519.6Q 682.2 517.9, 681.4 517.0Q 680.7 516.1, 679.3 516.1Q 678.0 516.1, 677.2 517.0Q 676.5 517.9, 676.5 519.6Q 676.5 521.4, 677.2 522.4Q 678.0 523.3, 679.3 523.3" fill="#E53F3F"/><path d="M 698.4 558.0L 697.5 555.4L 694.0 555.4L 693.1 558.0L 691.9 558.0L 694.9 549.1L 696.4 549.1L 699.6 558.0L 698.4 558.0M 694.3 554.4L 697.1 554.4L 695.7 550.4L 694.3 554.4" fill="#727272"/><path d="M 706.2 548.5L 706.2 558.0L 705.2 558.0L 705.0 557.2Q 704.3 558.1, 703.1 558.1Q 701.8 558.1, 701.0 557.3Q 700.3 556.5, 700.3 554.9Q 700.3 553.3, 701.2 552.4Q 702.1 551.4, 703.6 551.4Q 704.3 551.4, 705.0 551.6L 705.0 548.5L 706.2 548.5M 703.2 557.2Q 703.9 557.2, 704.3 556.8Q 704.8 556.5, 705.0 555.8L 705.0 552.6Q 704.3 552.4, 703.6 552.4Q 702.6 552.4, 702.1 553.0Q 701.5 553.7, 701.5 554.9Q 701.5 556.0, 701.9 556.6Q 702.4 557.2, 703.2 557.2" fill="#727272"/><path d="M 707.7 554.8Q 707.7 553.2, 708.5 552.3Q 709.3 551.4, 710.7 551.4Q 712.2 551.4, 712.8 552.3Q 713.4 553.1, 713.4 554.7L 713.4 554.9L 708.9 554.9Q 708.9 556.0, 709.4 556.6Q 709.9 557.2, 710.8 557.2Q 711.3 557.2, 711.8 557.1Q 712.3 557.0, 712.8 556.7L 713.2 557.5Q 712.5 557.8, 712.0 558.0Q 711.4 558.1, 710.8 558.1Q 709.3 558.1, 708.5 557.3Q 707.7 556.4, 707.7 554.8M 710.7 552.4Q 710.0 552.4, 709.5 552.8Q 709.1 553.2, 709.0 554.1L 712.2 554.1Q 712.1 553.2, 711.7 552.8Q 711.4 552.4, 710.7 552.4" fill="#727272"/><path d="M 717.8 551.4Q 718.9 551.4, 719.4 552.0Q 719.9 552.6, 719.9 553.7L 719.9 558.0L 718.8 558.0L 718.8 553.8Q 718.8 553.1, 718.5 552.7Q 718.2 552.4, 717.5 552.4Q 716.9 552.4, 716.4 552.7Q 715.9 552.9, 715.6 553.4L 715.6 558.0L 714.4 558.0L 714.4 551.6L 715.4 551.6L 715.6 552.5Q 716.4 551.4, 717.8 551.4" fill="#727272"/><path d="M 721.4 549.1L 722.6 549.1L 722.6 550.2L 721.4 550.2L 721.4 549.1M 721.4 551.6L 722.6 551.6L 722.6 558.0L 721.4 558.0L 721.4 551.6" fill="#727272"/><path d="M 727.6 551.4Q 728.6 551.4, 729.2 552.0Q 729.7 552.6, 729.7 553.7L 729.7 558.0L 728.5 558.0L 728.5 553.8Q 728.5 553.1, 728.2 552.7Q 727.9 552.4, 727.3 552.4Q 726.7 552.4, 726.2 552.7Q 725.7 552.9, 725.4 553.4L 725.4 558.0L 724.2 558.0L 724.2 551.6L 725.2 551.6L 725.3 552.5Q 726.2 551.4, 727.6 551.4" fill="#727272"/><path d="M 729.1 527.1Q 729.1 524.9, 730.1 523.7Q 731.2 522.5, 733.2 522.5Q 735.1 522.5, 736.2 523.7Q 737.2 524.9, 737.2 527.1Q 737.2 529.2, 736.2 530.5Q 735.1 531.7, 733.2 531.7Q 731.2 531.7, 730.1 530.5Q 729.1 529.2, 729.1 527.1M 733.2 530.7Q 734.5 530.7, 735.2 529.8Q 736.0 528.9, 736.0 527.1Q 736.0 525.3, 735.2 524.4Q 734.5 523.5, 733.2 523.5Q 731.8 523.5, 731.0 524.4Q 730.3 525.3, 730.3 527.1Q 730.3 528.9, 731.0 529.8Q 731.8 530.7, 733.2 530.7" fill="#E53F3F"/><path d="M 738.6 522.6L 739.8 522.6L 739.8 526.4L 744.4 526.4L 744.4 522.6L 745.6 522.6L 745.6 531.6L 744.4 531.6L 744.4 527.4L 739.8 527.4L 739.8 531.6L 738.6 531.6L 738.6 522.6" fill="#E53F3F"/><path d="M 715.7 483.4Q 715.7 481.2, 716.8 480.0Q 717.8 478.8, 719.8 478.8Q 721.8 478.8, 722.8 480.0Q 723.9 481.2, 723.9 483.4Q 723.9 485.6, 722.8 486.8Q 721.7 488.0, 719.8 488.0Q 717.8 488.0, 716.8 486.8Q 715.7 485.6, 715.7 483.4M 719.8 487.0Q 721.2 487.0, 721.9 486.1Q 722.6 485.2, 722.6 483.4Q 722.6 481.6, 721.9 480.8Q 721.2 479.9, 719.8 479.9Q 718.4 479.9, 717.7 480.7Q 717.0 481.6, 717.0 483.4Q 717.0 485.2, 717.7 486.1Q 718.4 487.0, 719.8 487.0" fill="#E53F3F"/><path d="M 725.3 478.9L 726.5 478.9L 726.5 482.7L 731.1 482.7L 731.1 478.9L 732.3 478.9L 732.3 487.9L 731.1 487.9L 731.1 483.7L 726.5 483.7L 726.5 487.9L 725.3 487.9L 725.3 478.9" fill="#E53F3F"/></g><g transform="translate(57.7,-280.4)"><path d="M 723.4,467.2 L 718.6,469.9" fill="none" stroke="currentColor" stroke-width="1.7" /><path d="M 718.6,469.9 L 713.8,472.7" fill="none" stroke="#CC9E19" stroke-width="1.7" /><path d="M 701.6,475.5 L 694.4,471.3" fill="none" stroke="#CC9E19" stroke-width="1.7" /><path d="M 694.4,471.3 L 687.1,467.0" fill="none" stroke="currentColor" stroke-width="1.7" /><path d="M 687.1,467.0 L 668.8,477.4" fill="none" stroke="currentColor" stroke-width="1.7" /><path d="M 668.8,477.4 L 650.7,466.8" fill="none" stroke="currentColor" stroke-width="1.7" /><path d="M 650.7,466.8 L 650.0,459.2 L 651.5,459.2 Z" fill="currentColor" stroke="currentColor" stroke-width="0.4" /><path d="M 652.4,451.7 L 649.2,451.6 L 650.0,459.2 L 651.5,459.2 Z" fill="#338CF2" stroke="#338CF2" stroke-width="0.4" /><path d="M 650.7,466.8 L 632.5,477.2" fill="none" stroke="currentColor" stroke-width="1.7" /><path d="M 630.9,476.3 L 630.9,484.6" fill="none" stroke="currentColor" stroke-width="1.7" /><path d="M 630.9,484.6 L 630.8,493.0" fill="none" stroke="#E53F3F" stroke-width="1.7" /><path d="M 634.1,476.3 L 634.0,484.7" fill="none" stroke="currentColor" stroke-width="1.7" /><path d="M 634.0,484.7 L 634.0,493.0" fill="none" stroke="#E53F3F" stroke-width="1.7" /><path d="M 632.5,477.2 L 625.8,473.3" fill="none" stroke="currentColor" stroke-width="1.7" /><path d="M 625.8,473.3 L 619.1,469.4" fill="none" stroke="#E53F3F" stroke-width="1.7" /><path d="M 705.2,483.0 L 705.1,490.8" fill="none" stroke="#CC9E19" stroke-width="1.7" /><path d="M 705.1,490.8 L 705.1,498.6" fill="none" stroke="currentColor" stroke-width="1.7" /><path d="M 720.4,507.1 L 720.0,507.7" fill="none" stroke="currentColor" stroke-width="0.8" /><path d="M 717.5,505.1 L 716.9,506.2" fill="none" stroke="currentColor" stroke-width="0.8" /><path d="M 714.6,503.1 L 713.7,504.7" fill="none" stroke="currentColor" stroke-width="0.8" /><path d="M 711.8,501.0 L 710.5,503.2" fill="none" stroke="currentColor" stroke-width="0.8" /><path d="M 708.9,499.0 L 707.3,501.7" fill="none" stroke="currentColor" stroke-width="0.8" /><path d="M 723.2,509.2 L 724.0,517.0" fill="none" stroke="currentColor" stroke-width="1.7" /><path d="M 724.0,517.0 L 724.8,524.9" fill="none" stroke="#E53F3F" stroke-width="1.7" /><path d="M 730.1,531.1 L 737.9,532.8" fill="none" stroke="#E53F3F" stroke-width="1.7" /><path d="M 737.9,532.8 L 745.8,534.6" fill="none" stroke="currentColor" stroke-width="1.7" /><path d="M 747.6,537.8 L 746.9,538.2" fill="none" stroke="currentColor" stroke-width="0.8" /><path d="M 749.5,541.1 L 748.1,541.7" fill="none" stroke="currentColor" stroke-width="0.8" /><path d="M 751.4,544.4 L 749.2,545.3" fill="none" stroke="#727272" stroke-width="0.8" /><path d="M 753.2,547.7 L 750.4,548.9" fill="none" stroke="#727272" stroke-width="0.8" /><path d="M 745.8,534.6 L 756.4,516.5" fill="none" stroke="currentColor" stroke-width="1.7" /><path d="M 756.4,516.5 L 764.0,514.9 L 764.2,516.5 Z" fill="currentColor" stroke="currentColor" stroke-width="0.4" /><path d="M 772.0,516.5 L 771.7,513.3 L 764.0,514.9 L 764.2,516.5 Z" fill="#E53F3F" stroke="#E53F3F" stroke-width="0.4" /><path d="M 756.4,516.5 L 742.4,500.8" fill="none" stroke="currentColor" stroke-width="1.7" /><path d="M 742.4,500.8 L 743.3,493.4 L 744.8,493.7 Z" fill="currentColor" stroke="currentColor" stroke-width="0.4" /><path d="M 747.2,486.6 L 744.1,486.0 L 743.3,493.4 L 744.8,493.7 Z" fill="#E53F3F" stroke="#E53F3F" stroke-width="0.4" /><path d="M 742.4,500.8 L 723.2,509.2" fill="none" stroke="currentColor" stroke-width="1.7" /><path d="M 687.4,467.2 L 687.1,467.0 L 686.2,467.5" fill="none" stroke="currentColor" stroke-width="1.7" /><path d="M 669.7,476.9 L 668.8,477.4 L 667.9,476.9" fill="none" stroke="currentColor" stroke-width="1.7" /><path d="M 651.6,467.3 L 650.7,466.8 L 649.8,467.3" fill="none" stroke="currentColor" stroke-width="1.7" /><path d="M 633.4,476.7 L 632.5,477.2 L 632.1,477.0" fill="none" stroke="currentColor" stroke-width="1.7" /><path d="M 723.3,509.6 L 723.2,509.2 L 724.2,508.8" fill="none" stroke="currentColor" stroke-width="1.7" /><path d="M 745.4,534.5 L 745.8,534.6 L 746.3,533.7" fill="none" stroke="currentColor" stroke-width="1.7" /><path d="M 755.9,517.4 L 756.4,516.5 L 755.7,515.7" fill="none" stroke="currentColor" stroke-width="1.7" /><path d="M 743.1,501.5 L 742.4,500.8 L 741.5,501.2" fill="none" stroke="currentColor" stroke-width="1.7" /><path d="M 702.7 480.7Q 702.8 480.7, 703.2 480.9Q 703.6 481.0, 704.1 481.2Q 704.5 481.3, 705.0 481.3Q 705.8 481.3, 706.3 480.9Q 706.8 480.4, 706.8 479.7Q 706.8 479.2, 706.6 478.9Q 706.3 478.6, 705.9 478.5Q 705.6 478.3, 704.9 478.1Q 704.1 477.9, 703.7 477.6Q 703.2 477.4, 702.8 476.9Q 702.5 476.5, 702.5 475.6Q 702.5 474.5, 703.3 473.8Q 704.0 473.1, 705.6 473.1Q 706.6 473.1, 707.8 473.6L 707.5 474.6Q 706.4 474.2, 705.6 474.2Q 704.7 474.2, 704.2 474.5Q 703.8 474.9, 703.8 475.5Q 703.8 476.0, 704.0 476.3Q 704.3 476.6, 704.6 476.7Q 705.0 476.9, 705.6 477.1Q 706.4 477.3, 706.9 477.6Q 707.4 477.8, 707.7 478.3Q 708.1 478.8, 708.1 479.7Q 708.1 481.0, 707.2 481.6Q 706.4 482.3, 705.0 482.3Q 704.2 482.3, 703.6 482.1Q 703.0 481.9, 702.3 481.6L 702.7 480.7" fill="#CC9E19"/><path d="M 709.2 474.6L 710.8 474.6L 710.8 473.0L 711.5 473.0L 711.5 474.6L 713.1 474.6L 713.1 475.2L 711.5 475.2L 711.5 476.9L 710.8 476.9L 710.8 475.2L 709.2 475.2L 709.2 474.6" fill="#CC9E19"/><path d="M 648.8 441.3L 651.8 446.1Q 652.1 446.5, 652.5 447.4Q 653.0 448.2, 653.0 448.3L 653.0 441.3L 654.2 441.3L 654.2 450.3L 653.0 450.3L 649.8 445.1Q 649.5 444.5, 649.1 443.8Q 648.7 443.1, 648.6 442.9L 648.6 450.3L 647.4 450.3L 647.4 441.3L 648.8 441.3" fill="#338CF2"/><path d="M 655.9 441.3L 657.1 441.3L 657.1 445.1L 661.7 445.1L 661.7 441.3L 662.9 441.3L 662.9 450.3L 661.7 450.3L 661.7 446.1L 657.1 446.1L 657.1 450.3L 655.9 450.3L 655.9 441.3" fill="#338CF2"/><path d="M 667.4 451.6Q 668.0 451.8, 668.3 452.2Q 668.5 452.5, 668.5 453.1Q 668.5 453.6, 668.3 454.0Q 668.0 454.4, 667.6 454.6Q 667.1 454.8, 666.5 454.8Q 665.9 454.8, 665.4 454.6Q 665.0 454.4, 664.6 453.9L 665.1 453.4Q 665.4 453.8, 665.7 454.0Q 666.0 454.1, 666.5 454.1Q 667.1 454.1, 667.4 453.9Q 667.7 453.6, 667.7 453.1Q 667.7 452.5, 667.4 452.2Q 667.0 452.0, 666.3 452.0L 665.9 452.0L 665.9 451.4L 666.3 451.4Q 666.9 451.4, 667.2 451.1Q 667.6 450.8, 667.6 450.3Q 667.6 449.9, 667.3 449.7Q 667.0 449.4, 666.5 449.4Q 666.0 449.4, 665.7 449.6Q 665.4 449.8, 665.2 450.2L 664.6 449.9Q 664.8 449.4, 665.3 449.1Q 665.8 448.8, 666.5 448.8Q 667.4 448.8, 667.9 449.2Q 668.4 449.6, 668.4 450.3Q 668.4 450.8, 668.2 451.1Q 667.9 451.4, 667.4 451.6" fill="#338CF2"/><path d="M 664.6 443.0L 666.2 443.0L 666.2 441.3L 666.9 441.3L 666.9 443.0L 668.5 443.0L 668.5 443.6L 666.9 443.6L 666.9 445.2L 666.2 445.2L 666.2 443.6L 664.6 443.6L 664.6 443.0" fill="#338CF2"/><path d="M 628.3 498.2Q 628.3 496.1, 629.3 494.9Q 630.4 493.7, 632.4 493.7Q 634.3 493.7, 635.4 494.9Q 636.5 496.1, 636.5 498.2Q 636.5 500.4, 635.4 501.6Q 634.3 502.9, 632.4 502.9Q 630.4 502.9, 629.3 501.6Q 628.3 500.4, 628.3 498.2M 632.4 501.8Q 633.7 501.8, 634.5 500.9Q 635.2 500.0, 635.2 498.2Q 635.2 496.5, 634.5 495.6Q 633.7 494.7, 632.4 494.7Q 631.0 494.7, 630.3 495.6Q 629.5 496.5, 629.5 498.2Q 629.5 500.0, 630.3 500.9Q 631.0 501.8, 632.4 501.8" fill="#E53F3F"/><path d="M 610.2 466.6Q 610.2 464.5, 611.3 463.3Q 612.4 462.1, 614.3 462.1Q 616.3 462.1, 617.4 463.3Q 618.4 464.5, 618.4 466.6Q 618.4 468.8, 617.4 470.0Q 616.3 471.3, 614.3 471.3Q 612.4 471.3, 611.3 470.0Q 610.2 468.8, 610.2 466.6M 614.3 470.3Q 615.7 470.3, 616.4 469.3Q 617.2 468.4, 617.2 466.6Q 617.2 464.9, 616.4 464.0Q 615.7 463.1, 614.3 463.1Q 613.0 463.1, 612.2 464.0Q 611.5 464.9, 611.5 466.6Q 611.5 468.4, 612.2 469.3Q 613.0 470.3, 614.3 470.3" fill="#E53F3F"/><path d="M 619.7 463.6L 622.8 463.6L 622.8 464.2L 619.7 464.2L 619.7 463.6" fill="#E53F3F"/><path d="M 721.2 530.1Q 721.2 528.0, 722.2 526.8Q 723.3 525.6, 725.3 525.6Q 727.2 525.6, 728.3 526.8Q 729.4 528.0, 729.4 530.1Q 729.4 532.3, 728.3 533.5Q 727.2 534.7, 725.3 534.7Q 723.3 534.7, 722.2 533.5Q 721.2 532.3, 721.2 530.1M 725.3 533.7Q 726.6 533.7, 727.4 532.8Q 728.1 531.9, 728.1 530.1Q 728.1 528.4, 727.4 527.5Q 726.6 526.6, 725.3 526.6Q 723.9 526.6, 723.2 527.5Q 722.4 528.3, 722.4 530.1Q 722.4 531.9, 723.2 532.8Q 723.9 533.7, 725.3 533.7" fill="#E53F3F"/><path d="M 756.9 558.6L 756.0 556.0L 752.4 556.0L 751.5 558.6L 750.3 558.6L 753.4 549.7L 754.9 549.7L 758.1 558.6L 756.9 558.6M 752.8 555.0L 755.6 555.0L 754.2 550.9L 752.8 555.0" fill="#727272"/><path d="M 764.6 549.0L 764.6 558.6L 763.7 558.6L 763.5 557.8Q 762.8 558.7, 761.6 558.7Q 760.3 558.7, 759.5 557.9Q 758.8 557.0, 758.8 555.5Q 758.8 553.8, 759.6 552.9Q 760.5 552.0, 762.1 552.0Q 762.8 552.0, 763.5 552.2L 763.5 549.0L 764.6 549.0M 761.7 557.8Q 762.3 557.8, 762.8 557.4Q 763.3 557.1, 763.5 556.4L 763.5 553.1Q 762.8 552.9, 762.1 552.9Q 761.1 552.9, 760.5 553.6Q 760.0 554.3, 760.0 555.5Q 760.0 556.6, 760.4 557.2Q 760.9 557.8, 761.7 557.8" fill="#727272"/><path d="M 766.2 555.4Q 766.2 553.8, 767.0 552.9Q 767.8 552.0, 769.2 552.0Q 770.6 552.0, 771.3 552.9Q 771.9 553.7, 771.9 555.3L 771.9 555.5L 767.4 555.5Q 767.4 556.6, 767.9 557.2Q 768.4 557.8, 769.3 557.8Q 769.8 557.8, 770.3 557.7Q 770.8 557.5, 771.3 557.3L 771.7 558.1Q 771.0 558.4, 770.4 558.6Q 769.9 558.7, 769.3 558.7Q 767.8 558.7, 767.0 557.8Q 766.2 556.9, 766.2 555.4M 769.2 552.9Q 768.5 552.9, 768.0 553.4Q 767.6 553.8, 767.4 554.6L 770.7 554.6Q 770.6 553.8, 770.2 553.4Q 769.9 552.9, 769.2 552.9" fill="#727272"/><path d="M 776.3 552.0Q 777.3 552.0, 777.9 552.6Q 778.4 553.2, 778.4 554.3L 778.4 558.6L 777.2 558.6L 777.2 554.4Q 777.2 553.6, 776.9 553.3Q 776.7 552.9, 776.0 552.9Q 775.4 552.9, 774.9 553.2Q 774.4 553.5, 774.1 554.0L 774.1 558.6L 772.9 558.6L 772.9 552.1L 773.9 552.1L 774.0 553.0Q 774.9 552.0, 776.3 552.0" fill="#727272"/><path d="M 779.9 549.7L 781.1 549.7L 781.1 550.8L 779.9 550.8L 779.9 549.7M 779.9 552.1L 781.1 552.1L 781.1 558.6L 779.9 558.6L 779.9 552.1" fill="#727272"/><path d="M 786.1 552.0Q 787.1 552.0, 787.6 552.6Q 788.2 553.2, 788.2 554.3L 788.2 558.6L 787.0 558.6L 787.0 554.4Q 787.0 553.6, 786.7 553.3Q 786.4 552.9, 785.8 552.9Q 785.2 552.9, 784.7 553.2Q 784.2 553.5, 783.9 554.0L 783.9 558.6L 782.7 558.6L 782.7 552.1L 783.7 552.1L 783.8 553.0Q 784.7 552.0, 786.1 552.0" fill="#727272"/><path d="M 773.2 514.4Q 773.2 512.3, 774.3 511.1Q 775.3 509.9, 777.3 509.9Q 779.3 509.9, 780.3 511.1Q 781.4 512.3, 781.4 514.4Q 781.4 516.6, 780.3 517.8Q 779.2 519.0, 777.3 519.0Q 775.3 519.0, 774.3 517.8Q 773.2 516.6, 773.2 514.4M 777.3 518.0Q 778.6 518.0, 779.4 517.1Q 780.1 516.2, 780.1 514.4Q 780.1 512.6, 779.4 511.8Q 778.6 510.9, 777.3 510.9Q 775.9 510.9, 775.2 511.7Q 774.5 512.6, 774.5 514.4Q 774.5 516.2, 775.2 517.1Q 775.9 518.0, 777.3 518.0" fill="#E53F3F"/><path d="M 782.8 510.0L 784.0 510.0L 784.0 513.8L 788.5 513.8L 788.5 510.0L 789.8 510.0L 789.8 518.9L 788.5 518.9L 788.5 514.8L 784.0 514.8L 784.0 518.9L 782.8 518.9L 782.8 510.0" fill="#E53F3F"/><path d="M 742.9 480.3Q 742.9 478.1, 743.9 476.9Q 745.0 475.7, 746.9 475.7Q 748.9 475.7, 750.0 476.9Q 751.0 478.1, 751.0 480.3Q 751.0 482.4, 750.0 483.7Q 748.9 484.9, 746.9 484.9Q 745.0 484.9, 743.9 483.7Q 742.9 482.5, 742.9 480.3M 746.9 483.9Q 748.3 483.9, 749.0 483.0Q 749.8 482.1, 749.8 480.3Q 749.8 478.5, 749.0 477.6Q 748.3 476.8, 746.9 476.8Q 745.6 476.8, 744.8 477.6Q 744.1 478.5, 744.1 480.3Q 744.1 482.1, 744.8 483.0Q 745.6 483.9, 746.9 483.9" fill="#E53F3F"/><path d="M 752.4 475.8L 753.6 475.8L 753.6 479.6L 758.2 479.6L 758.2 475.8L 759.4 475.8L 759.4 484.8L 758.2 484.8L 758.2 480.6L 753.6 480.6L 753.6 484.8L 752.4 484.8L 752.4 475.8" fill="#E53F3F"/></g><g transform="translate(-319.6,57.5)"><path d="M 690.9,526.6 L 690.9,518.8" fill="none" stroke="currentColor" stroke-width="1.7" /><path d="M 690.9,518.8 L 691.0,510.9" fill="none" stroke="#CC9E19" stroke-width="1.7" /><path d="M 687.4,503.5 L 680.2,499.2" fill="none" stroke="#CC9E19" stroke-width="1.7" /><path d="M 680.2,499.2 L 672.9,495.0" fill="none" stroke="currentColor" stroke-width="1.7" /><path d="M 672.9,495.0 L 654.6,505.4" fill="none" stroke="currentColor" stroke-width="1.7" /><path d="M 654.6,505.4 L 636.5,494.8" fill="none" stroke="currentColor" stroke-width="1.7" /><path d="M 636.5,494.8 L 635.7,487.2 L 637.3,487.2 Z" fill="currentColor" stroke="currentColor" stroke-width="0.4" /><path d="M 638.1,479.6 L 635.0,479.6 L 635.7,487.2 L 637.3,487.2 Z" fill="#338CF2" stroke="#338CF2" stroke-width="0.4" /><path d="M 636.5,494.8 L 618.3,505.1" fill="none" stroke="currentColor" stroke-width="1.7" /><path d="M 616.7,504.2 L 616.7,512.6" fill="none" stroke="currentColor" stroke-width="1.7" /><path d="M 616.7,512.6 L 616.7,520.9" fill="none" stroke="#E53F3F" stroke-width="1.7" /><path d="M 619.9,504.2 L 619.8,512.6" fill="none" stroke="currentColor" stroke-width="1.7" /><path d="M 619.8,512.6 L 619.8,520.9" fill="none" stroke="#E53F3F" stroke-width="1.7" /><path d="M 618.3,505.1 L 611.7,501.3" fill="none" stroke="currentColor" stroke-width="1.7" /><path d="M 611.7,501.3 L 605.0,497.4" fill="none" stroke="#E53F3F" stroke-width="1.7" /><path d="M 699.6,500.7 L 704.4,497.9" fill="none" stroke="#CC9E19" stroke-width="1.7" /><path d="M 704.4,497.9 L 709.2,495.2" fill="none" stroke="currentColor" stroke-width="1.7" /><path d="M 709.2,495.2 L 716.0,499.1" fill="none" stroke="currentColor" stroke-width="1.7" /><path d="M 716.0,499.1 L 722.8,503.1" fill="none" stroke="#727272" stroke-width="1.7" /><path d="M 673.2,495.2 L 672.9,495.0 L 672.0,495.5" fill="none" stroke="currentColor" stroke-width="1.7" /><path d="M 655.5,504.8 L 654.6,505.4 L 653.7,504.8" fill="none" stroke="currentColor" stroke-width="1.7" /><path d="M 637.4,495.3 L 636.5,494.8 L 635.6,495.3" fill="none" stroke="currentColor" stroke-width="1.7" /><path d="M 619.2,504.6 L 618.3,505.1 L 618.0,504.9" fill="none" stroke="currentColor" stroke-width="1.7" /><path d="M 709.0,495.3 L 709.2,495.2 L 709.6,495.4" fill="none" stroke="currentColor" stroke-width="1.7" /><path d="M 688.5 508.6Q 688.6 508.7, 689.0 508.8Q 689.4 509.0, 689.9 509.1Q 690.3 509.2, 690.8 509.2Q 691.6 509.2, 692.1 508.8Q 692.6 508.4, 692.6 507.7Q 692.6 507.2, 692.4 506.9Q 692.1 506.6, 691.7 506.4Q 691.4 506.3, 690.7 506.1Q 689.9 505.8, 689.5 505.6Q 689.0 505.4, 688.7 504.9Q 688.3 504.4, 688.3 503.6Q 688.3 502.5, 689.1 501.8Q 689.9 501.1, 691.4 501.1Q 692.4 501.1, 693.6 501.6L 693.3 502.6Q 692.2 502.1, 691.4 502.1Q 690.5 502.1, 690.1 502.5Q 689.6 502.9, 689.6 503.5Q 689.6 503.9, 689.8 504.2Q 690.1 504.5, 690.4 504.7Q 690.8 504.9, 691.4 505.0Q 692.2 505.3, 692.7 505.5Q 693.2 505.8, 693.5 506.3Q 693.9 506.8, 693.9 507.7Q 693.9 508.9, 693.0 509.6Q 692.2 510.2, 690.8 510.2Q 690.0 510.2, 689.4 510.1Q 688.8 509.9, 688.1 509.6L 688.5 508.6" fill="#CC9E19"/><path d="M 695.0 502.6L 696.6 502.6L 696.6 500.9L 697.3 500.9L 697.3 502.6L 698.9 502.6L 698.9 503.2L 697.3 503.2L 697.3 504.9L 696.6 504.9L 696.6 503.2L 695.0 503.2L 695.0 502.6" fill="#CC9E19"/><path d="M 634.6 469.3L 637.6 474.0Q 637.8 474.5, 638.3 475.3Q 638.8 476.2, 638.8 476.2L 638.8 469.3L 640.0 469.3L 640.0 478.2L 638.8 478.2L 635.6 473.1Q 635.3 472.5, 634.9 471.8Q 634.5 471.1, 634.4 470.9L 634.4 478.2L 633.2 478.2L 633.2 469.3L 634.6 469.3" fill="#338CF2"/><path d="M 641.7 469.3L 642.9 469.3L 642.9 473.1L 647.4 473.1L 647.4 469.3L 648.7 469.3L 648.7 478.2L 647.4 478.2L 647.4 474.1L 642.9 474.1L 642.9 478.2L 641.7 478.2L 641.7 469.3" fill="#338CF2"/><path d="M 653.2 479.6Q 653.8 479.8, 654.0 480.1Q 654.3 480.5, 654.3 481.1Q 654.3 481.6, 654.1 482.0Q 653.8 482.4, 653.4 482.6Q 652.9 482.8, 652.3 482.8Q 651.7 482.8, 651.2 482.6Q 650.7 482.3, 650.4 481.9L 650.8 481.4Q 651.2 481.8, 651.5 482.0Q 651.8 482.1, 652.3 482.1Q 652.8 482.1, 653.2 481.8Q 653.5 481.5, 653.5 481.1Q 653.5 480.5, 653.2 480.2Q 652.8 479.9, 652.1 479.9L 651.7 479.9L 651.7 479.3L 652.0 479.3Q 652.7 479.3, 653.0 479.1Q 653.4 478.8, 653.4 478.2Q 653.4 477.9, 653.1 477.6Q 652.8 477.4, 652.3 477.4Q 651.8 477.4, 651.5 477.6Q 651.2 477.8, 651.0 478.2L 650.4 477.9Q 650.6 477.4, 651.1 477.1Q 651.6 476.7, 652.3 476.7Q 653.2 476.7, 653.7 477.1Q 654.2 477.6, 654.2 478.2Q 654.2 478.7, 653.9 479.1Q 653.7 479.4, 653.2 479.6" fill="#338CF2"/><path d="M 650.4 470.9L 652.0 470.9L 652.0 469.3L 652.7 469.3L 652.7 470.9L 654.3 470.9L 654.3 471.5L 652.7 471.5L 652.7 473.2L 652.0 473.2L 652.0 471.5L 650.4 471.5L 650.4 470.9" fill="#338CF2"/><path d="M 614.1 526.1Q 614.1 524.0, 615.2 522.8Q 616.2 521.6, 618.2 521.6Q 620.2 521.6, 621.2 522.8Q 622.3 524.0, 622.3 526.1Q 622.3 528.3, 621.2 529.5Q 620.2 530.7, 618.2 530.7Q 616.2 530.7, 615.2 529.5Q 614.1 528.3, 614.1 526.1M 618.2 529.7Q 619.6 529.7, 620.3 528.8Q 621.0 527.9, 621.0 526.1Q 621.0 524.4, 620.3 523.5Q 619.6 522.6, 618.2 522.6Q 616.8 522.6, 616.1 523.5Q 615.4 524.3, 615.4 526.1Q 615.4 527.9, 616.1 528.8Q 616.8 529.7, 618.2 529.7" fill="#E53F3F"/><path d="M 596.1 494.6Q 596.1 492.5, 597.2 491.3Q 598.2 490.1, 600.2 490.1Q 602.2 490.1, 603.3 491.3Q 604.3 492.5, 604.3 494.6Q 604.3 496.8, 603.2 498.0Q 602.2 499.2, 600.2 499.2Q 598.3 499.2, 597.2 498.0Q 596.1 496.8, 596.1 494.6M 600.2 498.2Q 601.6 498.2, 602.3 497.3Q 603.1 496.4, 603.1 494.6Q 603.1 492.9, 602.3 492.0Q 601.6 491.1, 600.2 491.1Q 598.9 491.1, 598.1 492.0Q 597.4 492.8, 597.4 494.6Q 597.4 496.4, 598.1 497.3Q 598.9 498.2, 600.2 498.2" fill="#E53F3F"/><path d="M 605.6 491.5L 608.6 491.5L 608.6 492.2L 605.6 492.2L 605.6 491.5" fill="#E53F3F"/><path d="M 730.1 510.5L 729.1 507.9L 725.6 507.9L 724.7 510.5L 723.5 510.5L 726.6 501.6L 728.1 501.6L 731.2 510.5L 730.1 510.5M 726.0 506.9L 728.8 506.9L 727.3 502.9L 726.0 506.9" fill="#727272"/><path d="M 737.8 501.0L 737.8 510.5L 736.8 510.5L 736.7 509.7Q 735.9 510.6, 734.7 510.6Q 733.4 510.6, 732.6 509.8Q 731.9 509.0, 731.9 507.4Q 731.9 505.8, 732.8 504.9Q 733.7 503.9, 735.2 503.9Q 735.9 503.9, 736.6 504.1L 736.6 501.0L 737.8 501.0M 734.8 509.7Q 735.5 509.7, 735.9 509.4Q 736.4 509.0, 736.6 508.3L 736.6 505.1Q 736.0 504.9, 735.2 504.9Q 734.2 504.9, 733.7 505.5Q 733.1 506.2, 733.1 507.4Q 733.1 508.5, 733.6 509.1Q 734.0 509.7, 734.8 509.7" fill="#727272"/><path d="M 739.3 507.3Q 739.3 505.7, 740.1 504.8Q 740.9 503.9, 742.3 503.9Q 743.8 503.9, 744.4 504.8Q 745.0 505.6, 745.0 507.2L 745.0 507.5L 740.5 507.5Q 740.5 508.5, 741.0 509.1Q 741.5 509.7, 742.4 509.7Q 742.9 509.7, 743.4 509.6Q 743.9 509.5, 744.4 509.2L 744.8 510.0Q 744.1 510.3, 743.6 510.5Q 743.0 510.6, 742.4 510.6Q 740.9 510.6, 740.1 509.8Q 739.3 508.9, 739.3 507.3M 742.3 504.9Q 741.6 504.9, 741.1 505.3Q 740.7 505.7, 740.6 506.6L 743.8 506.6Q 743.7 505.7, 743.3 505.3Q 743.0 504.9, 742.3 504.9" fill="#727272"/><path d="M 749.4 503.9Q 750.4 503.9, 751.0 504.5Q 751.5 505.1, 751.5 506.3L 751.5 510.5L 750.3 510.5L 750.3 506.3Q 750.3 505.6, 750.0 505.2Q 749.7 504.9, 749.1 504.9Q 748.5 504.9, 748.0 505.2Q 747.5 505.4, 747.2 505.9L 747.2 510.5L 746.0 510.5L 746.0 504.1L 747.0 504.1L 747.1 505.0Q 748.0 503.9, 749.4 503.9" fill="#727272"/><path d="M 753.0 501.6L 754.2 501.6L 754.2 502.7L 753.0 502.7L 753.0 501.6M 753.0 504.1L 754.2 504.1L 754.2 510.5L 753.0 510.5L 753.0 504.1" fill="#727272"/><path d="M 759.1 503.9Q 760.2 503.9, 760.7 504.5Q 761.3 505.1, 761.3 506.3L 761.3 510.5L 760.1 510.5L 760.1 506.3Q 760.1 505.6, 759.8 505.2Q 759.5 504.9, 758.8 504.9Q 758.2 504.9, 757.7 505.2Q 757.2 505.4, 756.9 505.9L 756.9 510.5L 755.7 510.5L 755.7 504.1L 756.7 504.1L 756.9 505.0Q 757.7 503.9, 759.1 503.9" fill="#727272"/><path d="M 762.7 506.0L 767.4 506.0L 767.4 507.0L 762.7 507.0L 762.7 506.0" fill="#727272"/><path d="M 773.3 510.5L 771.1 506.9L 771.1 506.9L 769.7 506.9L 769.7 510.5L 768.5 510.5L 768.5 501.6L 771.1 501.6Q 772.6 501.6, 773.4 502.3Q 774.2 503.0, 774.2 504.2Q 774.2 505.2, 773.7 505.8Q 773.3 506.5, 772.4 506.7L 774.6 510.5L 773.3 510.5M 769.7 505.9L 771.1 505.9Q 772.0 505.9, 772.5 505.4Q 772.9 505.0, 772.9 504.2Q 772.9 503.4, 772.5 503.0Q 772.0 502.6, 771.1 502.6L 769.7 502.6L 769.7 505.9" fill="#727272"/><path d="M 775.4 501.6L 776.6 501.6L 776.6 502.7L 775.4 502.7L 775.4 501.6M 775.4 504.1L 776.6 504.1L 776.6 510.5L 775.4 510.5L 775.4 504.1" fill="#727272"/><path d="M 781.2 503.9Q 782.6 503.9, 783.3 504.8Q 784.1 505.6, 784.1 507.2Q 784.1 508.8, 783.2 509.7Q 782.3 510.6, 780.7 510.6Q 779.7 510.6, 778.8 510.3L 778.2 510.1L 778.2 501.0L 779.4 501.0L 779.4 504.8Q 780.0 503.9, 781.2 503.9M 780.7 509.7Q 781.7 509.7, 782.3 509.1Q 782.8 508.4, 782.8 507.2Q 782.8 506.1, 782.4 505.5Q 782.0 504.9, 781.1 504.9Q 780.5 504.9, 780.0 505.2Q 779.5 505.6, 779.4 506.2L 779.4 509.5Q 780.0 509.7, 780.7 509.7" fill="#727272"/><path d="M 785.1 507.3Q 785.1 505.7, 785.9 504.8Q 786.7 503.9, 788.2 503.9Q 789.7 503.9, 790.5 504.8Q 791.3 505.7, 791.3 507.3Q 791.3 508.9, 790.5 509.8Q 789.7 510.6, 788.2 510.6Q 786.7 510.6, 785.9 509.8Q 785.1 508.9, 785.1 507.3M 786.4 507.3Q 786.4 508.5, 786.8 509.1Q 787.3 509.7, 788.2 509.7Q 789.1 509.7, 789.6 509.1Q 790.1 508.5, 790.1 507.3Q 790.1 506.1, 789.6 505.5Q 789.1 504.9, 788.2 504.9Q 787.3 504.9, 786.8 505.5Q 786.4 506.1, 786.4 507.3" fill="#727272"/><path d="M 792.7 509.2Q 793.3 509.4, 793.7 509.6Q 794.1 509.7, 794.6 509.7Q 795.1 509.7, 795.5 509.4Q 795.8 509.2, 795.8 508.7Q 795.8 508.4, 795.6 508.3Q 795.4 508.1, 795.2 508.0Q 795.0 507.9, 794.5 507.7Q 794.4 507.7, 793.8 507.5Q 793.2 507.3, 792.9 506.8Q 792.6 506.4, 792.6 505.8Q 792.6 505.0, 793.2 504.5Q 793.8 503.9, 795.0 503.9Q 795.5 503.9, 795.9 504.1Q 796.3 504.2, 796.8 504.4L 796.5 505.3Q 796.1 505.1, 795.7 505.0Q 795.4 504.9, 795.0 504.9Q 794.4 504.9, 794.1 505.2Q 793.8 505.4, 793.8 505.8Q 793.8 506.1, 794.0 506.3Q 794.3 506.5, 794.8 506.7Q 794.9 506.7, 795.0 506.7L 795.3 506.9Q 795.9 507.0, 796.2 507.2Q 796.5 507.4, 796.7 507.8Q 797.0 508.1, 797.0 508.7Q 797.0 509.6, 796.3 510.1Q 795.6 510.7, 794.6 510.7Q 794.0 510.7, 793.4 510.5Q 792.9 510.4, 792.4 510.2L 792.7 509.2" fill="#727272"/><path d="M 798.1 507.3Q 798.1 505.7, 798.9 504.8Q 799.7 503.9, 801.2 503.9Q 802.6 503.9, 803.2 504.8Q 803.9 505.6, 803.9 507.2L 803.9 507.5L 799.3 507.5Q 799.4 508.5, 799.9 509.1Q 800.4 509.7, 801.3 509.7Q 801.8 509.7, 802.2 509.6Q 802.7 509.5, 803.3 509.2L 803.6 510.0Q 803.0 510.3, 802.4 510.5Q 801.8 510.6, 801.2 510.6Q 799.7 510.6, 798.9 509.8Q 798.1 508.9, 798.1 507.3M 801.2 504.9Q 800.4 504.9, 800.0 505.3Q 799.5 505.7, 799.4 506.6L 802.6 506.6Q 802.5 505.7, 802.2 505.3Q 801.8 504.9, 801.2 504.9" fill="#727272"/></g><g transform="translate(-395.4,141.7)"><path d="M 697.9,478.0 L 695.3,485.2" fill="none" stroke="#E53F3F" stroke-width="1.7" /><path d="M 695.3,485.2 L 692.6,492.4" fill="none" stroke="currentColor" stroke-width="1.7" /><path d="M 692.6,492.4 L 672.0,496.0" fill="none" stroke="currentColor" stroke-width="1.7" /><path d="M 691.4,495.8 L 674.3,498.8" fill="none" stroke="currentColor" stroke-width="1.7" /><path d="M 672.0,496.0 L 664.8,515.8" fill="none" stroke="currentColor" stroke-width="1.7" /><path d="M 664.8,515.8 L 678.3,531.9" fill="none" stroke="currentColor" stroke-width="1.7" /><path d="M 668.4,515.1 L 679.5,528.4" fill="none" stroke="currentColor" stroke-width="1.7" /><path d="M 678.3,531.9 L 698.9,528.2" fill="none" stroke="currentColor" stroke-width="1.7" /><path d="M 698.9,528.2 L 706.1,508.5" fill="none" stroke="currentColor" stroke-width="1.7" /><path d="M 696.6,525.4 L 702.6,509.1" fill="none" stroke="currentColor" stroke-width="1.7" /><path d="M 706.1,508.5 L 714.1,507.1" fill="none" stroke="currentColor" stroke-width="1.7" /><path d="M 714.1,507.1 L 722.0,505.7" fill="none" stroke="#E53F3F" stroke-width="1.7" /><path d="M 706.1,508.5 L 692.6,492.4" fill="none" stroke="currentColor" stroke-width="1.7" /><path d="M 673.0,495.9 L 672.0,496.0 L 671.6,497.0" fill="none" stroke="currentColor" stroke-width="1.7" /><path d="M 665.1,514.8 L 664.8,515.8 L 665.4,516.6" fill="none" stroke="currentColor" stroke-width="1.7" /><path d="M 677.6,531.1 L 678.3,531.9 L 679.3,531.7" fill="none" stroke="currentColor" stroke-width="1.7" /><path d="M 697.9,528.4 L 698.9,528.2 L 699.3,527.2" fill="none" stroke="currentColor" stroke-width="1.7" /><path d="M 695.7 472.7Q 695.7 470.5, 696.8 469.3Q 697.8 468.1, 699.8 468.1Q 701.8 468.1, 702.9 469.3Q 703.9 470.5, 703.9 472.7Q 703.9 474.8, 702.8 476.1Q 701.8 477.3, 699.8 477.3Q 697.8 477.3, 696.8 476.1Q 695.7 474.9, 695.7 472.7M 699.8 476.3Q 701.2 476.3, 701.9 475.4Q 702.7 474.5, 702.7 472.7Q 702.7 470.9, 701.9 470.0Q 701.2 469.2, 699.8 469.2Q 698.5 469.2, 697.7 470.0Q 697.0 470.9, 697.0 472.7Q 697.0 474.5, 697.7 475.4Q 698.5 476.3, 699.8 476.3" fill="#E53F3F"/><path d="M 705.3 468.2L 706.5 468.2L 706.5 472.0L 711.1 472.0L 711.1 468.2L 712.3 468.2L 712.3 477.2L 711.1 477.2L 711.1 473.0L 706.5 473.0L 706.5 477.2L 705.3 477.2L 705.3 468.2" fill="#E53F3F"/><path d="M 722.7 504.9Q 722.7 502.7, 723.8 501.5Q 724.8 500.3, 726.8 500.3Q 728.8 500.3, 729.8 501.5Q 730.9 502.7, 730.9 504.9Q 730.9 507.0, 729.8 508.3Q 728.8 509.5, 726.8 509.5Q 724.8 509.5, 723.8 508.3Q 722.7 507.0, 722.7 504.9M 726.8 508.5Q 728.2 508.5, 728.9 507.6Q 729.6 506.6, 729.6 504.9Q 729.6 503.1, 728.9 502.2Q 728.2 501.3, 726.8 501.3Q 725.5 501.3, 724.7 502.2Q 724.0 503.1, 724.0 504.9Q 724.0 506.7, 724.7 507.6Q 725.5 508.5, 726.8 508.5" fill="#E53F3F"/><path d="M 732.2 501.8L 735.2 501.8L 735.2 502.4L 732.2 502.4L 732.2 501.8" fill="#E53F3F"/></g><g transform="translate(-543.5,372.1)"><path d="M 733.7,463.3 L 727.0,467.1" fill="none" stroke="currentColor" stroke-width="1.7" /><path d="M 727.0,467.1 L 720.3,471.0" fill="none" stroke="#E53F3F" stroke-width="1.7" /><path d="M 715.5,479.1 L 715.5,486.9" fill="none" stroke="#E53F3F" stroke-width="1.7" /><path d="M 715.5,486.9 L 715.5,494.7" fill="none" stroke="currentColor" stroke-width="1.7" /><path d="M 715.5,494.7 L 733.7,505.3" fill="none" stroke="currentColor" stroke-width="1.7" /><path d="M 715.5,498.4 L 730.6,507.1" fill="none" stroke="currentColor" stroke-width="1.7" /><path d="M 733.7,505.3 L 733.7,526.3" fill="none" stroke="currentColor" stroke-width="1.7" /><path d="M 733.7,526.3 L 715.5,536.7" fill="none" stroke="currentColor" stroke-width="1.7" /><path d="M 730.6,524.4 L 715.5,533.1" fill="none" stroke="currentColor" stroke-width="1.7" /><path d="M 715.5,536.7 L 697.4,526.2" fill="none" stroke="currentColor" stroke-width="1.7" /><path d="M 697.4,526.2 L 697.4,505.3" fill="none" stroke="currentColor" stroke-width="1.7" /><path d="M 700.5,524.4 L 700.5,507.1" fill="none" stroke="currentColor" stroke-width="1.7" /><path d="M 697.4,505.3 L 690.7,501.4" fill="none" stroke="currentColor" stroke-width="1.7" /><path d="M 690.7,501.4 L 684.0,497.5" fill="none" stroke="#E53F3F" stroke-width="1.7" /><path d="M 697.4,505.3 L 715.5,494.7" fill="none" stroke="currentColor" stroke-width="1.7" /><path d="M 732.8,504.7 L 733.7,505.3 L 733.7,506.3" fill="none" stroke="currentColor" stroke-width="1.7" /><path d="M 733.7,525.2 L 733.7,526.3 L 732.8,526.8" fill="none" stroke="currentColor" stroke-width="1.7" /><path d="M 716.5,536.2 L 715.5,536.7 L 714.6,536.2" fill="none" stroke="currentColor" stroke-width="1.7" /><path d="M 698.3,526.8 L 697.4,526.2 L 697.4,525.2" fill="none" stroke="currentColor" stroke-width="1.7" /><path d="M 711.4 473.8Q 711.4 471.6, 712.5 470.4Q 713.6 469.2, 715.5 469.2Q 717.5 469.2, 718.6 470.4Q 719.6 471.6, 719.6 473.8Q 719.6 475.9, 718.6 477.2Q 717.5 478.4, 715.5 478.4Q 713.6 478.4, 712.5 477.2Q 711.4 476.0, 711.4 473.8M 715.5 477.4Q 716.9 477.4, 717.6 476.5Q 718.4 475.6, 718.4 473.8Q 718.4 472.0, 717.6 471.1Q 716.9 470.2, 715.5 470.2Q 714.2 470.2, 713.4 471.1Q 712.7 472.0, 712.7 473.8Q 712.7 475.6, 713.4 476.5Q 714.2 477.4, 715.5 477.4" fill="#E53F3F"/><path d="M 666.3 490.3L 667.5 490.3L 667.5 494.1L 672.0 494.1L 672.0 490.3L 673.2 490.3L 673.2 499.3L 672.0 499.3L 672.0 495.1L 667.5 495.1L 667.5 499.3L 666.3 499.3L 666.3 490.3" fill="#E53F3F"/><path d="M 675.1 494.8Q 675.1 492.6, 676.1 491.4Q 677.2 490.2, 679.2 490.2Q 681.2 490.2, 682.2 491.4Q 683.3 492.6, 683.3 494.8Q 683.3 496.9, 682.2 498.2Q 681.1 499.4, 679.2 499.4Q 677.2 499.4, 676.1 498.2Q 675.1 497.0, 675.1 494.8M 679.2 498.4Q 680.5 498.4, 681.3 497.5Q 682.0 496.6, 682.0 494.8Q 682.0 493.0, 681.3 492.1Q 680.5 491.2, 679.2 491.2Q 677.8 491.2, 677.1 492.1Q 676.3 493.0, 676.3 494.8Q 676.3 496.6, 677.1 497.5Q 677.8 498.4, 679.2 498.4" fill="#E53F3F"/></g><g transform="translate(-202.6,372.5)"><path d="M 728.6,497.8 L 723.5,500.6" fill="none" stroke="#727272" stroke-width="1.7" /><path d="M 723.5,500.6 L 718.5,503.5" fill="none" stroke="#CC9E19" stroke-width="1.7" /><path d="M 711.4,503.5 L 704.1,499.2" fill="none" stroke="#CC9E19" stroke-width="1.7" /><path d="M 704.1,499.2 L 696.8,495.0" fill="none" stroke="currentColor" stroke-width="1.7" /><path d="M 696.8,495.0 L 678.6,505.4" fill="none" stroke="currentColor" stroke-width="1.7" /><path d="M 678.6,505.4 L 660.4,494.8" fill="none" stroke="currentColor" stroke-width="1.7" /><path d="M 660.4,494.8 L 659.7,487.2 L 661.3,487.2 Z" fill="currentColor" stroke="currentColor" stroke-width="0.4" /><path d="M 662.1,479.6 L 658.9,479.6 L 659.7,487.2 L 661.3,487.2 Z" fill="#338CF2" stroke="#338CF2" stroke-width="0.4" /><path d="M 660.4,494.8 L 642.2,505.1" fill="none" stroke="currentColor" stroke-width="1.7" /><path d="M 640.7,504.2 L 640.6,512.6" fill="none" stroke="currentColor" stroke-width="1.7" /><path d="M 640.6,512.6 L 640.6,520.9" fill="none" stroke="#E53F3F" stroke-width="1.7" /><path d="M 643.8,504.2 L 643.8,512.6" fill="none" stroke="currentColor" stroke-width="1.7" /><path d="M 643.8,512.6 L 643.7,520.9" fill="none" stroke="#E53F3F" stroke-width="1.7" /><path d="M 642.2,505.1 L 635.6,501.3" fill="none" stroke="currentColor" stroke-width="1.7" /><path d="M 635.6,501.3 L 628.9,497.4" fill="none" stroke="#E53F3F" stroke-width="1.7" /><path d="M 697.2,495.2 L 696.8,495.0 L 695.9,495.5" fill="none" stroke="currentColor" stroke-width="1.7" /><path d="M 679.5,504.8 L 678.6,505.4 L 677.7,504.8" fill="none" stroke="currentColor" stroke-width="1.7" /><path d="M 661.3,495.3 L 660.4,494.8 L 659.5,495.3" fill="none" stroke="currentColor" stroke-width="1.7" /><path d="M 643.2,504.6 L 642.2,505.1 L 641.9,504.9" fill="none" stroke="currentColor" stroke-width="1.7" /><path d="M 735.9 499.9L 734.9 497.3L 731.4 497.3L 730.5 499.9L 729.3 499.9L 732.4 491.0L 733.9 491.0L 737.0 499.9L 735.9 499.9M 731.8 496.3L 734.6 496.3L 733.1 492.3L 731.8 496.3" fill="#727272"/><path d="M 743.6 490.4L 743.6 499.9L 742.7 499.9L 742.5 499.1Q 741.8 500.0, 740.6 500.0Q 739.2 500.0, 738.5 499.2Q 737.7 498.4, 737.7 496.8Q 737.7 495.2, 738.6 494.3Q 739.5 493.4, 741.1 493.4Q 741.7 493.4, 742.4 493.5L 742.4 490.4L 743.6 490.4M 740.7 499.1Q 741.3 499.1, 741.8 498.8Q 742.3 498.4, 742.4 497.7L 742.4 494.5Q 741.8 494.3, 741.1 494.3Q 740.1 494.3, 739.5 495.0Q 738.9 495.6, 738.9 496.8Q 738.9 497.9, 739.4 498.5Q 739.8 499.1, 740.7 499.1" fill="#727272"/><path d="M 745.2 496.7Q 745.2 495.1, 746.0 494.2Q 746.7 493.4, 748.2 493.4Q 749.6 493.4, 750.3 494.2Q 750.9 495.1, 750.9 496.7L 750.9 496.9L 746.4 496.9Q 746.4 497.9, 746.9 498.5Q 747.4 499.1, 748.3 499.1Q 748.8 499.1, 749.3 499.0Q 749.7 498.9, 750.3 498.6L 750.6 499.4Q 750.0 499.8, 749.4 499.9Q 748.8 500.0, 748.2 500.0Q 746.8 500.0, 746.0 499.2Q 745.2 498.3, 745.2 496.7M 748.2 494.3Q 747.5 494.3, 747.0 494.7Q 746.6 495.1, 746.4 496.0L 749.6 496.0Q 749.6 495.1, 749.2 494.7Q 748.9 494.3, 748.2 494.3" fill="#727272"/><path d="M 755.3 493.4Q 756.3 493.4, 756.9 493.9Q 757.4 494.5, 757.4 495.7L 757.4 499.9L 756.2 499.9L 756.2 495.7Q 756.2 495.0, 755.9 494.6Q 755.6 494.3, 755.0 494.3Q 754.4 494.3, 753.9 494.6Q 753.4 494.8, 753.1 495.3L 753.1 499.9L 751.9 499.9L 751.9 493.5L 752.9 493.5L 753.0 494.4Q 753.9 493.4, 755.3 493.4" fill="#727272"/><path d="M 758.9 496.7Q 758.9 495.1, 759.7 494.2Q 760.5 493.4, 762.0 493.4Q 763.5 493.4, 764.3 494.2Q 765.1 495.1, 765.1 496.7Q 765.1 498.3, 764.3 499.2Q 763.5 500.0, 762.0 500.0Q 760.5 500.0, 759.7 499.2Q 758.9 498.3, 758.9 496.7M 760.1 496.7Q 760.1 497.9, 760.6 498.5Q 761.1 499.1, 762.0 499.1Q 762.9 499.1, 763.4 498.5Q 763.9 497.9, 763.9 496.7Q 763.9 495.5, 763.4 494.9Q 762.9 494.3, 762.0 494.3Q 761.1 494.3, 760.6 494.9Q 760.1 495.5, 760.1 496.7" fill="#727272"/><path d="M 766.6 498.6Q 767.1 498.8, 767.5 499.0Q 767.9 499.1, 768.4 499.1Q 768.9 499.1, 769.3 498.8Q 769.6 498.6, 769.6 498.1Q 769.6 497.8, 769.4 497.7Q 769.2 497.5, 769.0 497.4Q 768.8 497.3, 768.3 497.1Q 768.2 497.1, 767.6 496.9Q 767.0 496.7, 766.7 496.2Q 766.4 495.8, 766.4 495.2Q 766.4 494.4, 767.0 493.9Q 767.6 493.4, 768.8 493.4Q 769.3 493.4, 769.7 493.5Q 770.1 493.6, 770.6 493.8L 770.3 494.7Q 769.9 494.5, 769.5 494.4Q 769.2 494.3, 768.8 494.3Q 768.2 494.3, 767.9 494.6Q 767.6 494.8, 767.6 495.2Q 767.6 495.5, 767.8 495.7Q 768.1 495.9, 768.6 496.1Q 768.7 496.1, 768.8 496.1L 769.1 496.3Q 769.7 496.4, 770.0 496.6Q 770.3 496.8, 770.5 497.2Q 770.8 497.5, 770.8 498.1Q 770.8 499.0, 770.1 499.6Q 769.5 500.1, 768.4 500.1Q 767.8 500.1, 767.2 499.9Q 766.7 499.8, 766.2 499.6L 766.6 498.6" fill="#727272"/><path d="M 777.0 493.5L 778.1 493.5L 774.8 503.0L 773.7 503.0L 774.8 499.9L 774.3 499.9L 772.0 493.5L 773.2 493.5L 775.1 498.9L 777.0 493.5" fill="#727272"/><path d="M 778.8 490.4L 779.9 490.4L 779.9 499.9L 778.8 499.9L 778.8 490.4" fill="#727272"/><path d="M 712.4 508.6Q 712.5 508.7, 712.9 508.8Q 713.3 509.0, 713.8 509.1Q 714.3 509.2, 714.7 509.2Q 715.6 509.2, 716.1 508.8Q 716.5 508.4, 716.5 507.7Q 716.5 507.2, 716.3 506.9Q 716.1 506.6, 715.7 506.4Q 715.3 506.3, 714.7 506.1Q 713.9 505.8, 713.4 505.6Q 712.9 505.4, 712.6 504.9Q 712.3 504.4, 712.3 503.6Q 712.3 502.5, 713.0 501.8Q 713.8 501.1, 715.3 501.1Q 716.3 501.1, 717.5 501.6L 717.2 502.6Q 716.1 502.1, 715.3 502.1Q 714.5 502.1, 714.0 502.5Q 713.5 502.9, 713.5 503.5Q 713.5 503.9, 713.8 504.2Q 714.0 504.5, 714.4 504.7Q 714.7 504.9, 715.3 505.0Q 716.1 505.3, 716.6 505.5Q 717.1 505.8, 717.4 506.3Q 717.8 506.8, 717.8 507.7Q 717.8 508.9, 717.0 509.6Q 716.1 510.2, 714.8 510.2Q 714.0 510.2, 713.4 510.1Q 712.8 509.9, 712.1 509.6L 712.4 508.6" fill="#CC9E19"/><path d="M 658.6 469.3L 661.5 474.0Q 661.8 474.5, 662.2 475.3Q 662.7 476.2, 662.7 476.2L 662.7 469.3L 663.9 469.3L 663.9 478.2L 662.7 478.2L 659.6 473.1Q 659.2 472.5, 658.8 471.8Q 658.4 471.1, 658.3 470.9L 658.3 478.2L 657.2 478.2L 657.2 469.3L 658.6 469.3" fill="#338CF2"/><path d="M 665.6 469.3L 666.8 469.3L 666.8 473.1L 671.4 473.1L 671.4 469.3L 672.6 469.3L 672.6 478.2L 671.4 478.2L 671.4 474.1L 666.8 474.1L 666.8 478.2L 665.6 478.2L 665.6 469.3" fill="#338CF2"/><path d="M 677.1 479.6Q 677.7 479.8, 678.0 480.1Q 678.3 480.5, 678.3 481.1Q 678.3 481.6, 678.0 482.0Q 677.8 482.4, 677.3 482.6Q 676.8 482.8, 676.2 482.8Q 675.6 482.8, 675.1 482.6Q 674.7 482.3, 674.3 481.9L 674.8 481.4Q 675.1 481.8, 675.5 482.0Q 675.8 482.1, 676.2 482.1Q 676.8 482.1, 677.1 481.8Q 677.4 481.5, 677.4 481.1Q 677.4 480.5, 677.1 480.2Q 676.8 479.9, 676.0 479.9L 675.6 479.9L 675.6 479.3L 676.0 479.3Q 676.6 479.3, 677.0 479.1Q 677.3 478.8, 677.3 478.2Q 677.3 477.9, 677.0 477.6Q 676.7 477.4, 676.3 477.4Q 675.8 477.4, 675.5 477.6Q 675.2 477.8, 674.9 478.2L 674.4 477.9Q 674.6 477.4, 675.1 477.1Q 675.6 476.7, 676.3 476.7Q 677.1 476.7, 677.6 477.1Q 678.1 477.6, 678.1 478.2Q 678.1 478.7, 677.9 479.1Q 677.6 479.4, 677.1 479.6" fill="#338CF2"/><path d="M 674.3 470.9L 675.9 470.9L 675.9 469.3L 676.6 469.3L 676.6 470.9L 678.2 470.9L 678.2 471.5L 676.6 471.5L 676.6 473.2L 675.9 473.2L 675.9 471.5L 674.3 471.5L 674.3 470.9" fill="#338CF2"/><path d="M 638.0 526.1Q 638.0 524.0, 639.1 522.8Q 640.2 521.6, 642.1 521.6Q 644.1 521.6, 645.2 522.8Q 646.2 524.0, 646.2 526.1Q 646.2 528.3, 645.2 529.5Q 644.1 530.7, 642.1 530.7Q 640.2 530.7, 639.1 529.5Q 638.0 528.3, 638.0 526.1M 642.1 529.7Q 643.5 529.7, 644.2 528.8Q 645.0 527.9, 645.0 526.1Q 645.0 524.4, 644.2 523.5Q 643.5 522.6, 642.1 522.6Q 640.8 522.6, 640.0 523.5Q 639.3 524.3, 639.3 526.1Q 639.3 527.9, 640.0 528.8Q 640.8 529.7, 642.1 529.7" fill="#E53F3F"/><path d="M 620.1 494.6Q 620.1 492.5, 621.1 491.3Q 622.2 490.1, 624.2 490.1Q 626.1 490.1, 627.2 491.3Q 628.3 492.5, 628.3 494.6Q 628.3 496.8, 627.2 498.0Q 626.1 499.2, 624.2 499.2Q 622.2 499.2, 621.1 498.0Q 620.1 496.8, 620.1 494.6M 624.2 498.2Q 625.5 498.2, 626.3 497.3Q 627.0 496.4, 627.0 494.6Q 627.0 492.9, 626.3 492.0Q 625.5 491.1, 624.2 491.1Q 622.8 491.1, 622.1 492.0Q 621.3 492.8, 621.3 494.6Q 621.3 496.4, 622.1 497.3Q 622.8 498.2, 624.2 498.2" fill="#E53F3F"/><path d="M 629.5 491.5L 632.6 491.5L 632.6 492.2L 629.5 492.2L 629.5 491.5" fill="#E53F3F"/></g><g transform="translate(-319.6,627.5)"><path d="M 690.9,526.6 L 690.9,518.8" fill="none" stroke="currentColor" stroke-width="1.7" /><path d="M 690.9,518.8 L 691.0,510.9" fill="none" stroke="#CC9E19" stroke-width="1.7" /><path d="M 687.4,503.5 L 680.2,499.2" fill="none" stroke="#CC9E19" stroke-width="1.7" /><path d="M 680.2,499.2 L 672.9,495.0" fill="none" stroke="currentColor" stroke-width="1.7" /><path d="M 672.9,495.0 L 654.6,505.4" fill="none" stroke="currentColor" stroke-width="1.7" /><path d="M 654.6,505.4 L 636.5,494.8" fill="none" stroke="currentColor" stroke-width="1.7" /><path d="M 636.5,494.8 L 635.7,487.2 L 637.3,487.2 Z" fill="currentColor" stroke="currentColor" stroke-width="0.4" /><path d="M 638.1,479.6 L 635.0,479.6 L 635.7,487.2 L 637.3,487.2 Z" fill="#338CF2" stroke="#338CF2" stroke-width="0.4" /><path d="M 636.5,494.8 L 618.3,505.1" fill="none" stroke="currentColor" stroke-width="1.7" /><path d="M 616.7,504.2 L 616.7,512.6" fill="none" stroke="currentColor" stroke-width="1.7" /><path d="M 616.7,512.6 L 616.7,520.9" fill="none" stroke="#E53F3F" stroke-width="1.7" /><path d="M 619.9,504.2 L 619.8,512.6" fill="none" stroke="currentColor" stroke-width="1.7" /><path d="M 619.8,512.6 L 619.8,520.9" fill="none" stroke="#E53F3F" stroke-width="1.7" /><path d="M 618.3,505.1 L 611.7,501.3" fill="none" stroke="currentColor" stroke-width="1.7" /><path d="M 611.7,501.3 L 605.0,497.4" fill="none" stroke="#E53F3F" stroke-width="1.7" /><path d="M 699.6,500.7 L 704.4,497.9" fill="none" stroke="#CC9E19" stroke-width="1.7" /><path d="M 704.4,497.9 L 709.2,495.2" fill="none" stroke="currentColor" stroke-width="1.7" /><path d="M 709.2,495.2 L 716.0,499.1" fill="none" stroke="currentColor" stroke-width="1.7" /><path d="M 716.0,499.1 L 722.8,503.1" fill="none" stroke="#727272" stroke-width="1.7" /><path d="M 673.2,495.2 L 672.9,495.0 L 672.0,495.5" fill="none" stroke="currentColor" stroke-width="1.7" /><path d="M 655.5,504.8 L 654.6,505.4 L 653.7,504.8" fill="none" stroke="currentColor" stroke-width="1.7" /><path d="M 637.4,495.3 L 636.5,494.8 L 635.6,495.3" fill="none" stroke="currentColor" stroke-width="1.7" /><path d="M 619.2,504.6 L 618.3,505.1 L 618.0,504.9" fill="none" stroke="currentColor" stroke-width="1.7" /><path d="M 709.0,495.3 L 709.2,495.2 L 709.6,495.4" fill="none" stroke="currentColor" stroke-width="1.7" /><path d="M 688.5 508.6Q 688.6 508.7, 689.0 508.8Q 689.4 509.0, 689.9 509.1Q 690.3 509.2, 690.8 509.2Q 691.6 509.2, 692.1 508.8Q 692.6 508.4, 692.6 507.7Q 692.6 507.2, 692.4 506.9Q 692.1 506.6, 691.7 506.4Q 691.4 506.3, 690.7 506.1Q 689.9 505.8, 689.5 505.6Q 689.0 505.4, 688.7 504.9Q 688.3 504.4, 688.3 503.6Q 688.3 502.5, 689.1 501.8Q 689.9 501.1, 691.4 501.1Q 692.4 501.1, 693.6 501.6L 693.3 502.6Q 692.2 502.1, 691.4 502.1Q 690.5 502.1, 690.1 502.5Q 689.6 502.9, 689.6 503.5Q 689.6 503.9, 689.8 504.2Q 690.1 504.5, 690.4 504.7Q 690.8 504.9, 691.4 505.0Q 692.2 505.3, 692.7 505.5Q 693.2 505.8, 693.5 506.3Q 693.9 506.8, 693.9 507.7Q 693.9 508.9, 693.0 509.6Q 692.2 510.2, 690.8 510.2Q 690.0 510.2, 689.4 510.1Q 688.8 509.9, 688.1 509.6L 688.5 508.6" fill="#CC9E19"/><path d="M 695.0 502.6L 696.6 502.6L 696.6 500.9L 697.3 500.9L 697.3 502.6L 698.9 502.6L 698.9 503.2L 697.3 503.2L 697.3 504.9L 696.6 504.9L 696.6 503.2L 695.0 503.2L 695.0 502.6" fill="#CC9E19"/><path d="M 634.6 469.3L 637.6 474.0Q 637.8 474.5, 638.3 475.3Q 638.8 476.2, 638.8 476.2L 638.8 469.3L 640.0 469.3L 640.0 478.2L 638.8 478.2L 635.6 473.1Q 635.3 472.5, 634.9 471.8Q 634.5 471.1, 634.4 470.9L 634.4 478.2L 633.2 478.2L 633.2 469.3L 634.6 469.3" fill="#338CF2"/><path d="M 641.7 469.3L 642.9 469.3L 642.9 473.1L 647.4 473.1L 647.4 469.3L 648.7 469.3L 648.7 478.2L 647.4 478.2L 647.4 474.1L 642.9 474.1L 642.9 478.2L 641.7 478.2L 641.7 469.3" fill="#338CF2"/><path d="M 653.2 479.6Q 653.8 479.8, 654.0 480.1Q 654.3 480.5, 654.3 481.1Q 654.3 481.6, 654.1 482.0Q 653.8 482.4, 653.4 482.6Q 652.9 482.8, 652.3 482.8Q 651.7 482.8, 651.2 482.6Q 650.7 482.3, 650.4 481.9L 650.8 481.4Q 651.2 481.8, 651.5 482.0Q 651.8 482.1, 652.3 482.1Q 652.8 482.1, 653.2 481.8Q 653.5 481.5, 653.5 481.1Q 653.5 480.5, 653.2 480.2Q 652.8 479.9, 652.1 479.9L 651.7 479.9L 651.7 479.3L 652.0 479.3Q 652.7 479.3, 653.0 479.1Q 653.4 478.8, 653.4 478.2Q 653.4 477.9, 653.1 477.6Q 652.8 477.4, 652.3 477.4Q 651.8 477.4, 651.5 477.6Q 651.2 477.8, 651.0 478.2L 650.4 477.9Q 650.6 477.4, 651.1 477.1Q 651.6 476.7, 652.3 476.7Q 653.2 476.7, 653.7 477.1Q 654.2 477.6, 654.2 478.2Q 654.2 478.7, 653.9 479.1Q 653.7 479.4, 653.2 479.6" fill="#338CF2"/><path d="M 650.4 470.9L 652.0 470.9L 652.0 469.3L 652.7 469.3L 652.7 470.9L 654.3 470.9L 654.3 471.5L 652.7 471.5L 652.7 473.2L 652.0 473.2L 652.0 471.5L 650.4 471.5L 650.4 470.9" fill="#338CF2"/><path d="M 614.1 526.1Q 614.1 524.0, 615.2 522.8Q 616.2 521.6, 618.2 521.6Q 620.2 521.6, 621.2 522.8Q 622.3 524.0, 622.3 526.1Q 622.3 528.3, 621.2 529.5Q 620.2 530.7, 618.2 530.7Q 616.2 530.7, 615.2 529.5Q 614.1 528.3, 614.1 526.1M 618.2 529.7Q 619.6 529.7, 620.3 528.8Q 621.0 527.9, 621.0 526.1Q 621.0 524.4, 620.3 523.5Q 619.6 522.6, 618.2 522.6Q 616.8 522.6, 616.1 523.5Q 615.4 524.3, 615.4 526.1Q 615.4 527.9, 616.1 528.8Q 616.8 529.7, 618.2 529.7" fill="#E53F3F"/><path d="M 596.1 494.6Q 596.1 492.5, 597.2 491.3Q 598.2 490.1, 600.2 490.1Q 602.2 490.1, 603.3 491.3Q 604.3 492.5, 604.3 494.6Q 604.3 496.8, 603.2 498.0Q 602.2 499.2, 600.2 499.2Q 598.3 499.2, 597.2 498.0Q 596.1 496.8, 596.1 494.6M 600.2 498.2Q 601.6 498.2, 602.3 497.3Q 603.1 496.4, 603.1 494.6Q 603.1 492.9, 602.3 492.0Q 601.6 491.1, 600.2 491.1Q 598.9 491.1, 598.1 492.0Q 597.4 492.8, 597.4 494.6Q 597.4 496.4, 598.1 497.3Q 598.9 498.2, 600.2 498.2" fill="#E53F3F"/><path d="M 605.6 491.5L 608.6 491.5L 608.6 492.2L 605.6 492.2L 605.6 491.5" fill="#E53F3F"/><path d="M 730.1 510.5L 729.1 507.9L 725.6 507.9L 724.7 510.5L 723.5 510.5L 726.6 501.6L 728.1 501.6L 731.2 510.5L 730.1 510.5M 726.0 506.9L 728.8 506.9L 727.3 502.9L 726.0 506.9" fill="#727272"/><path d="M 737.8 501.0L 737.8 510.5L 736.8 510.5L 736.7 509.7Q 735.9 510.6, 734.7 510.6Q 733.4 510.6, 732.6 509.8Q 731.9 509.0, 731.9 507.4Q 731.9 505.8, 732.8 504.9Q 733.7 503.9, 735.2 503.9Q 735.9 503.9, 736.6 504.1L 736.6 501.0L 737.8 501.0M 734.8 509.7Q 735.5 509.7, 735.9 509.4Q 736.4 509.0, 736.6 508.3L 736.6 505.1Q 736.0 504.9, 735.2 504.9Q 734.2 504.9, 733.7 505.5Q 733.1 506.2, 733.1 507.4Q 733.1 508.5, 733.6 509.1Q 734.0 509.7, 734.8 509.7" fill="#727272"/><path d="M 739.3 507.3Q 739.3 505.7, 740.1 504.8Q 740.9 503.9, 742.3 503.9Q 743.8 503.9, 744.4 504.8Q 745.0 505.6, 745.0 507.2L 745.0 507.5L 740.5 507.5Q 740.5 508.5, 741.0 509.1Q 741.5 509.7, 742.4 509.7Q 742.9 509.7, 743.4 509.6Q 743.9 509.5, 744.4 509.2L 744.8 510.0Q 744.1 510.3, 743.6 510.5Q 743.0 510.6, 742.4 510.6Q 740.9 510.6, 740.1 509.8Q 739.3 508.9, 739.3 507.3M 742.3 504.9Q 741.6 504.9, 741.1 505.3Q 740.7 505.7, 740.6 506.6L 743.8 506.6Q 743.7 505.7, 743.3 505.3Q 743.0 504.9, 742.3 504.9" fill="#727272"/><path d="M 749.4 503.9Q 750.4 503.9, 751.0 504.5Q 751.5 505.1, 751.5 506.3L 751.5 510.5L 750.3 510.5L 750.3 506.3Q 750.3 505.6, 750.0 505.2Q 749.7 504.9, 749.1 504.9Q 748.5 504.9, 748.0 505.2Q 747.5 505.4, 747.2 505.9L 747.2 510.5L 746.0 510.5L 746.0 504.1L 747.0 504.1L 747.1 505.0Q 748.0 503.9, 749.4 503.9" fill="#727272"/><path d="M 753.0 501.6L 754.2 501.6L 754.2 502.7L 753.0 502.7L 753.0 501.6M 753.0 504.1L 754.2 504.1L 754.2 510.5L 753.0 510.5L 753.0 504.1" fill="#727272"/><path d="M 759.1 503.9Q 760.2 503.9, 760.7 504.5Q 761.3 505.1, 761.3 506.3L 761.3 510.5L 760.1 510.5L 760.1 506.3Q 760.1 505.6, 759.8 505.2Q 759.5 504.9, 758.8 504.9Q 758.2 504.9, 757.7 505.2Q 757.2 505.4, 756.9 505.9L 756.9 510.5L 755.7 510.5L 755.7 504.1L 756.7 504.1L 756.9 505.0Q 757.7 503.9, 759.1 503.9" fill="#727272"/><path d="M 762.7 506.0L 767.4 506.0L 767.4 507.0L 762.7 507.0L 762.7 506.0" fill="#727272"/><path d="M 773.3 510.5L 771.1 506.9L 771.1 506.9L 769.7 506.9L 769.7 510.5L 768.5 510.5L 768.5 501.6L 771.1 501.6Q 772.6 501.6, 773.4 502.3Q 774.2 503.0, 774.2 504.2Q 774.2 505.2, 773.7 505.8Q 773.3 506.5, 772.4 506.7L 774.6 510.5L 773.3 510.5M 769.7 505.9L 771.1 505.9Q 772.0 505.9, 772.5 505.4Q 772.9 505.0, 772.9 504.2Q 772.9 503.4, 772.5 503.0Q 772.0 502.6, 771.1 502.6L 769.7 502.6L 769.7 505.9" fill="#727272"/><path d="M 775.4 501.6L 776.6 501.6L 776.6 502.7L 775.4 502.7L 775.4 501.6M 775.4 504.1L 776.6 504.1L 776.6 510.5L 775.4 510.5L 775.4 504.1" fill="#727272"/><path d="M 781.2 503.9Q 782.6 503.9, 783.3 504.8Q 784.1 505.6, 784.1 507.2Q 784.1 508.8, 783.2 509.7Q 782.3 510.6, 780.7 510.6Q 779.7 510.6, 778.8 510.3L 778.2 510.1L 778.2 501.0L 779.4 501.0L 779.4 504.8Q 780.0 503.9, 781.2 503.9M 780.7 509.7Q 781.7 509.7, 782.3 509.1Q 782.8 508.4, 782.8 507.2Q 782.8 506.1, 782.4 505.5Q 782.0 504.9, 781.1 504.9Q 780.5 504.9, 780.0 505.2Q 779.5 505.6, 779.4 506.2L 779.4 509.5Q 780.0 509.7, 780.7 509.7" fill="#727272"/><path d="M 785.1 507.3Q 785.1 505.7, 785.9 504.8Q 786.7 503.9, 788.2 503.9Q 789.7 503.9, 790.5 504.8Q 791.3 505.7, 791.3 507.3Q 791.3 508.9, 790.5 509.8Q 789.7 510.6, 788.2 510.6Q 786.7 510.6, 785.9 509.8Q 785.1 508.9, 785.1 507.3M 786.4 507.3Q 786.4 508.5, 786.8 509.1Q 787.3 509.7, 788.2 509.7Q 789.1 509.7, 789.6 509.1Q 790.1 508.5, 790.1 507.3Q 790.1 506.1, 789.6 505.5Q 789.1 504.9, 788.2 504.9Q 787.3 504.9, 786.8 505.5Q 786.4 506.1, 786.4 507.3" fill="#727272"/><path d="M 792.7 509.2Q 793.3 509.4, 793.7 509.6Q 794.1 509.7, 794.6 509.7Q 795.1 509.7, 795.5 509.4Q 795.8 509.2, 795.8 508.7Q 795.8 508.4, 795.6 508.3Q 795.4 508.1, 795.2 508.0Q 795.0 507.9, 794.5 507.7Q 794.4 507.7, 793.8 507.5Q 793.2 507.3, 792.9 506.8Q 792.6 506.4, 792.6 505.8Q 792.6 505.0, 793.2 504.5Q 793.8 503.9, 795.0 503.9Q 795.5 503.9, 795.9 504.1Q 796.3 504.2, 796.8 504.4L 796.5 505.3Q 796.1 505.1, 795.7 505.0Q 795.4 504.9, 795.0 504.9Q 794.4 504.9, 794.1 505.2Q 793.8 505.4, 793.8 505.8Q 793.8 506.1, 794.0 506.3Q 794.3 506.5, 794.8 506.7Q 794.9 506.7, 795.0 506.7L 795.3 506.9Q 795.9 507.0, 796.2 507.2Q 796.5 507.4, 796.7 507.8Q 797.0 508.1, 797.0 508.7Q 797.0 509.6, 796.3 510.1Q 795.6 510.7, 794.6 510.7Q 794.0 510.7, 793.4 510.5Q 792.9 510.4, 792.4 510.2L 792.7 509.2" fill="#727272"/><path d="M 798.1 507.3Q 798.1 505.7, 798.9 504.8Q 799.7 503.9, 801.2 503.9Q 802.6 503.9, 803.2 504.8Q 803.9 505.6, 803.9 507.2L 803.9 507.5L 799.3 507.5Q 799.4 508.5, 799.9 509.1Q 800.4 509.7, 801.3 509.7Q 801.8 509.7, 802.2 509.6Q 802.7 509.5, 803.3 509.2L 803.6 510.0Q 803.0 510.3, 802.4 510.5Q 801.8 510.6, 801.2 510.6Q 799.7 510.6, 798.9 509.8Q 798.1 508.9, 798.1 507.3M 801.2 504.9Q 800.4 504.9, 800.0 505.3Q 799.5 505.7, 799.4 506.6L 802.6 506.6Q 802.5 505.7, 802.2 505.3Q 801.8 504.9, 801.2 504.9" fill="#727272"/></g><text x="20" y="24.0" font-size="11" letter-spacing="1.4" font-weight="700" fill="var(--ink-3)">A · DIE AKTIVIERUNG: WOZU DAS ATP GEBRAUCHT WIRD</text><line x1="20" y1="32.0" x2="980.0" y2="32.0" stroke="currentColor" stroke-width="1" opacity=".25"/><rect x="20.0" y="336.0" width="520.0" height="76.0" rx="8" fill="var(--cofaktor-bg)" stroke="var(--cofaktor)" stroke-width="1.2" opacity=".95"/><text x="20" y="468.0" font-size="11" letter-spacing="1.4" font-weight="700" fill="var(--ink-3)">B · DIE ÜBERTRAGUNG: S<tspan baseline-shift="sub" font-size="8.5">N</tspan>2 AM METHYLKOHLENSTOFF</text><line x1="20" y1="476.0" x2="980.0" y2="476.0" stroke="currentColor" stroke-width="1" opacity=".25"/><text x="20" y="985.0" font-size="11" letter-spacing="1.4" font-weight="700" fill="var(--ink-3)">C · DIESELBE VERBINDUNG, HOMOLYTISCH GESPALTEN: QUERVERBINDUNG ZU M-16</text><line x1="20" y1="993.0" x2="980.0" y2="993.0" stroke="currentColor" stroke-width="1" opacity=".25"/><rect x="576.0" y="1058.0" width="404.0" height="116.0" rx="8" fill="var(--drug-bg)" stroke="var(--drug)" stroke-width="1.2" opacity=".95"/><text x="20" y="1250.0" font-size="11" letter-spacing="1.4" font-weight="700" fill="var(--ink-3)">D · WORAUF ES IN DER PRÜFUNG ANKOMMT</text><line x1="20" y1="1258.0" x2="980.0" y2="1258.0" stroke="currentColor" stroke-width="1" opacity=".25"/><line x1="420.0" y1="198.0" x2="520.0" y2="198.0" stroke="currentColor" stroke-width="1.5" marker-end="url(#rxn)"/><line x1="540.0" y1="566.0" x2="610.0" y2="566.0" stroke="currentColor" stroke-width="1.5" marker-end="url(#rxn)"/><path d="M 661.0 503.0 L 652.0 503.0 L 652.0 617.0 L 661.0 617.0" fill="none" stroke="currentColor" stroke-width="1.4"/><path d="M 945.0 503.0 L 954.0 503.0 L 954.0 617.0 L 945.0 617.0" fill="none" stroke="currentColor" stroke-width="1.4"/><text x="958.0" y="515.0" font-size="15" font-weight="700" fill="currentColor">&#8225;</text><line x1="714.0" y1="565.0" x2="781.0" y2="565.0" stroke="var(--warn)" stroke-width="1.6" stroke-dasharray="4 3"/><line x1="808.0" y1="565.0" x2="876.0" y2="565.0" stroke="var(--warn)" stroke-width="1.6" stroke-dasharray="4 3"/><line x1="794.0" y1="556.0" x2="794.0" y2="545.0" stroke="currentColor" stroke-width="1.3"/><line x1="788.0" y1="574.0" x2="778.0" y2="584.0" stroke="currentColor" stroke-width="1.3"/><line x1="800.0" y1="574.0" x2="810.0" y2="584.0" stroke="currentColor" stroke-width="1.3"/><circle cx="202.5" cy="179.5" r="1.7" fill="var(--ink-2)"/><circle cx="203.8" cy="172.5" r="1.7" fill="var(--ink-2)"/><circle cx="340.4" cy="639.4" r="1.7" fill="var(--ink-2)"/><circle cx="334.4" cy="635.5" r="1.7" fill="var(--ink-2)"/><path d="M 206.2 176.6 A 38.3 38.3 0 0 0 260.2 191.2" fill="none" stroke="var(--warn)" stroke-width="1.40" stroke-linecap="round"/><polygon points="263.7,188.8 260.6,194.1 260.5,191.3 257.8,190.5" fill="var(--warn)"/><path d="M 282.6 181.0 A 11.1 11.1 0 0 0 289.7 168.8" fill="none" stroke="var(--warn)" stroke-width="1.40" stroke-linecap="round"/><polygon points="288.3,164.9 293.2,168.6 290.4,168.3 289.3,170.9" fill="var(--warn)"/><path d="M 338.1 636.4 A 34.6 34.6 0 0 0 365.7 594.4" fill="none" stroke="var(--warn)" stroke-width="1.40" stroke-linecap="round"/><polygon points="364.5,590.3 368.6,594.9 365.9,594.1 364.3,596.5" fill="var(--warn)"/><path d="M 310.4 1165.7 A 43.1 43.1 0 0 0 361.9 1141.5" fill="none" stroke="var(--warn)" stroke-width="1.40" stroke-linecap="round"/><polygon points="363.4,1137.6 365.9,1144.4 362.1,1141.4" fill="var(--warn)"/><path d="M 377.6 1122.7 A 11.0 11.0 0 0 1 389.0 1114.8" fill="none" stroke="var(--warn)" stroke-width="1.40" stroke-linecap="round"/><polygon points="393.0,1115.9 390.0,1109.3 389.5,1114.2" fill="var(--warn)"/><text x="20.0" y="54.0" font-size="12.5" fill="currentColor">Der Schwefel greift nicht am Phosphor an, sondern am C5&#8242; der Ribose. Deshalb geht das gesamte Triphosphat, unten als PPP abgekürzt, ab.</text><text x="156.1" y="222.6" font-size="10.5" fill="var(--ink-3)" text-anchor="middle">L-Methionin, ein neutraler Thioether</text><text x="300.8" y="286.7" font-size="10.5" fill="var(--ink-3)" text-anchor="middle">ATP: angegriffen wird der Zucker, nicht das Phosphat</text><text x="753.5" y="301.4" font-size="10.5" fill="var(--drug)" text-anchor="middle" font-weight="700">S-Adenosylmethionin</text><text x="753.5" y="316.4" font-size="10.5" fill="var(--drug)" text-anchor="middle" font-weight="700">drei Substituenten am Schwefel = Sulfonium</text><text x="470.0" y="188.0" font-size="11.5" fill="var(--enzym)" text-anchor="middle" font-weight="700" font-family="Consolas, monospace">MAT</text><text x="470.0" y="216.0" font-size="9.5" fill="var(--ink-3)" text-anchor="middle">Methionin-Adenosyltransferase</text><text x="470.0" y="234.0" font-size="10.5" fill="var(--cofaktor)" text-anchor="middle">+ H&#8322;O</text><text x="470.0" y="250.0" font-size="10.5" fill="var(--cofaktor)" text-anchor="middle">&#8722; P&#7522; &#8722; PP&#7522;</text><text x="38.0" y="358.0" font-size="11" fill="var(--cofaktor)" font-weight="700">WAS DAS ATP BEWIRKT</text><text x="38.0" y="380.0" font-size="12.5" fill="currentColor">Die Methylgruppe ist dieselbe wie im Methionin. Neu ist die Ladung am Schwefel: sie macht</text><text x="38.0" y="399.0" font-size="12.5" fill="currentColor">das Methyl elektrophil und den abgehenden Thioether ungeladen.</text><text x="344.2" y="507.3" font-size="11" fill="var(--ink-3)" text-anchor="middle" font-weight="700">S-Adenosylmethionin</text><text x="300.4" y="701.6" font-size="10.5" fill="var(--ink-3)" text-anchor="middle">Catecholat, das Nucleophil der COMT</text><text x="812.0" y="523.0" font-size="11" fill="var(--warn)" text-anchor="middle" font-weight="700">Angriff auf der abgewandten Seite</text><text x="702.0" y="569.0" font-size="13.5" fill="var(--enzym)" text-anchor="end" font-weight="700">ArO</text><text x="708.0" y="562.0" font-size="9.5" fill="var(--ink-3)">&#948;&#8722;</text><text x="794.0" y="569.0" font-size="13.5" fill="currentColor" text-anchor="middle" font-weight="700">C</text><text x="888.0" y="569.0" font-size="14" fill="var(--cofaktor)" font-weight="700">S</text><text x="898.0" y="562.0" font-size="9.5" fill="var(--ink-3)">&#948;+</text><text x="794.0" y="542.0" font-size="10.5" fill="currentColor" text-anchor="middle">H</text><text x="771.0" y="594.0" font-size="10.5" fill="currentColor" text-anchor="middle">H</text><text x="817.0" y="594.0" font-size="10.5" fill="currentColor" text-anchor="middle">H</text><text x="812.0" y="607.0" font-size="10" fill="var(--ink-3)" text-anchor="middle">planare CH&#8323;-Gruppe, fünffach koordinierter Übergangszustand</text><text x="20.0" y="736.0" font-size="12.5" fill="currentColor">Ein einziger Schritt: Bindungsbildung und Bindungsbruch laufen gleichzeitig. Weil das Nucleophil auf der dem</text><text x="20.0" y="755.0" font-size="12.5" fill="currentColor">Schwefel abgewandten Seite angreift, kehrt sich die Konfiguration am Methylkohlenstoff um. Mit dreifach isotopen-</text><text x="20.0" y="774.0" font-size="12.5" fill="currentColor">markiertem Methyl (H, D, T) ist diese Inversion nachgewiesen worden. Gezeichnet ist der Pfeil des Angriffs; das Paar der</text><text x="20.0" y="793.0" font-size="12.5" fill="currentColor">brechenden Bindung bleibt am Schwefel und macht ihn zum neutralen Thioether &#8211; im Übergangszustand steht dafür das &#948;+.</text><text x="20.0" y="826.0" font-size="11" fill="var(--ink-3)" font-weight="700">PRODUKTE</text><text x="310.0" y="875.0" font-size="17" fill="currentColor" text-anchor="middle" font-weight="700">+</text><text x="162.9" y="936.8" font-size="10.5" fill="var(--ink-3)" text-anchor="middle">methyliertes Produkt</text><text x="476.1" y="926.6" font-size="10.5" fill="var(--drug)" text-anchor="middle">S-Adenosylhomocystein, wieder ein neutraler Thioether</text><text x="476.1" y="941.6" font-size="10.5" fill="var(--drug)" text-anchor="middle">hemmt seinerseits alle Methyltransferasen</text><text x="660.0" y="850.0" font-size="12" fill="currentColor">Der Schwefel trägt jetzt wieder nur zwei</text><text x="660.0" y="869.0" font-size="12" fill="currentColor">Substituenten. Damit ist er weder elektrophil</text><text x="660.0" y="888.0" font-size="12" fill="currentColor">aktiviert noch eine gute Abgangsgruppe. Die</text><text x="660.0" y="907.0" font-size="12" fill="currentColor">Aktivierung ist verbraucht und muss über den</text><text x="660.0" y="926.0" font-size="12" fill="currentColor">SAM-Zyklus mit neuem ATP erneuert werden.</text><text x="20.0" y="1013.0" font-size="12.5" fill="currentColor">Radikal-SAM-Enzyme brechen nicht die Bindung zum Methyl, sondern die zum Adenosyl, und zwar homolytisch. Von den beiden Elektronen dieser Bindung geht eines</text><text x="20.0" y="1031.0" font-size="12.5" fill="currentColor">auf das C5&#8242;; das andere bleibt am Schwefel und macht ihn zusammen mit dem Elektron des Clusters zum neutralen Thioether.</text><text x="344.0" y="1056.0" font-size="10.5" fill="var(--drug)" text-anchor="middle">C5&#8242;&#8722;S bricht homolytisch: es entstehen L-Methionin</text><text x="344.0" y="1071.0" font-size="10.5" fill="var(--drug)" text-anchor="middle">und das 5&#8242;-Desoxyadenosyl-Radikal</text><text x="278.0" y="1190.0" font-size="13" fill="var(--warn)" text-anchor="middle" font-weight="700">[4Fe&#8722;4S]</text><text x="278.0" y="1208.0" font-size="10" fill="var(--ink-3)" text-anchor="middle">reduziert, gibt ein Elektron ab</text><text x="594.0" y="1080.0" font-size="11" fill="var(--drug)" font-weight="700">WARUM DAS IN DIE PRÜFUNG GEHÖRT</text><text x="594.0" y="1102.0" font-size="12.5" fill="currentColor">Es entsteht dasselbe 5&#8242;-Desoxyadenosyl-Radikal wie aus</text><text x="594.0" y="1121.0" font-size="12.5" fill="currentColor">Adenosylcobalamin (Tafel M-16). Zwei ganz verschiedene</text><text x="594.0" y="1140.0" font-size="12.5" fill="currentColor">Cofaktoren liefern dasselbe Werkzeug für dieselbe Aufgabe:</text><text x="594.0" y="1159.0" font-size="12.5" fill="currentColor">die Abstraktion eines nicht aktivierten Wasserstoffs.</text><text x="20.0" y="1274.0" font-size="12" fill="currentColor">SAM methyliert meist ein Heteroatom: O bei COMT und ASMT, N bei PNMT und HNMT, S bei der Thiopurin-S-Methyltransferase. Die DNA-Methyltransferasen sind die Ausnahme: sie</text><text x="20.0" y="1292.0" font-size="12" fill="currentColor">methylieren das C5 des Cytosins, und zwar über denselben Umweg wie die Thymidylatsynthase auf Tafel M-04.</text></g></svg>